<svg width="277" height="62" viewBox="0 0 277 62" fill="none" xmlns="http://www.w3.org/2000/svg">
<path fill-rule="evenodd" clip-rule="evenodd" d="M0.5 60.5L0.500003 0.5L1.5 0.5L1.5 60.5H0.5Z" fill="black"/>
<path fill-rule="evenodd" clip-rule="evenodd" d="M2.5 60.5L2.50001 0.5L13.5 0.5L13.5 60.5H2.5Z" fill="black"/>
<path fill-rule="evenodd" clip-rule="evenodd" d="M89.5 60.5L89.5 0.5L100.5 0.5V60.5H89.5Z" fill="black"/>
<path fill-rule="evenodd" clip-rule="evenodd" d="M175.5 60.5V0.5L186.5 0.5V60.5H175.5Z" fill="black"/>
<path fill-rule="evenodd" clip-rule="evenodd" d="M224.5 60.5V0.5L235.5 0.5V60.5H224.5Z" fill="black"/>
<path fill-rule="evenodd" clip-rule="evenodd" d="M14.5 60.5L14.5 0.5L15.5 0.5L15.5 60.5H14.5Z" fill="black"/>
<path fill-rule="evenodd" clip-rule="evenodd" d="M16.5 60.5L16.5 0.5L17.5 0.5L17.5 60.5H16.5Z" fill="black"/>
<path fill-rule="evenodd" clip-rule="evenodd" d="M18.5 60.5L18.5 0.5L19.5 0.5L19.5 60.5H18.5Z" fill="black"/>
<path fill-rule="evenodd" clip-rule="evenodd" d="M101.5 60.5L101.5 0.5L102.5 0.5V60.5H101.5Z" fill="black"/>
<path fill-rule="evenodd" clip-rule="evenodd" d="M113.5 60.5L113.5 0.5L114.5 0.5V60.5H113.5Z" fill="black"/>
<path fill-rule="evenodd" clip-rule="evenodd" d="M122.5 60.5L122.5 0.5L123.5 0.5V60.5H122.5Z" fill="black"/>
<path fill-rule="evenodd" clip-rule="evenodd" d="M131.5 60.5V0.5L132.5 0.5V60.5H131.5Z" fill="black"/>
<path fill-rule="evenodd" clip-rule="evenodd" d="M136.5 60.5V0.5L137.5 0.5V60.5H136.5Z" fill="black"/>
<path fill-rule="evenodd" clip-rule="evenodd" d="M138.5 60.5V0.5L139.5 0.5V60.5H138.5Z" fill="black"/>
<path fill-rule="evenodd" clip-rule="evenodd" d="M163.5 60.5V0.5L164.5 0.5V60.5H163.5Z" fill="black"/>
<path fill-rule="evenodd" clip-rule="evenodd" d="M194.5 60.5V0.5L195.5 0.5V60.5H194.5Z" fill="black"/>
<path fill-rule="evenodd" clip-rule="evenodd" d="M217.5 60.5V0.5L218.5 0.5V60.5H217.5Z" fill="black"/>
<path fill-rule="evenodd" clip-rule="evenodd" d="M222.5 60.5V0.5L223.5 0.5V60.5H222.5Z" fill="black"/>
<path fill-rule="evenodd" clip-rule="evenodd" d="M236.5 60.5V0.5L237.5 0.5V60.5H236.5Z" fill="black"/>
<path fill-rule="evenodd" clip-rule="evenodd" d="M238.5 60.5V0.5L239.5 0.5V60.5H238.5Z" fill="black"/>
<path fill-rule="evenodd" clip-rule="evenodd" d="M252.5 60.5V0.5L253.5 0.5V60.5H252.5Z" fill="black"/>
<path fill-rule="evenodd" clip-rule="evenodd" d="M257.5 60.5V0.5L258.5 0.5V60.5H257.5Z" fill="black"/>
<path fill-rule="evenodd" clip-rule="evenodd" d="M275.5 60.5V0.5L276.5 0.5V60.5H275.5Z" fill="black"/>
<path fill-rule="evenodd" clip-rule="evenodd" d="M273.5 60.5V0.5L274.5 0.5V60.5H273.5Z" fill="black"/>
<path fill-rule="evenodd" clip-rule="evenodd" d="M240.5 60.5V0.5L241.5 0.5V60.5H240.5Z" fill="black"/>
<path fill-rule="evenodd" clip-rule="evenodd" d="M212.5 60.5V0.5L213.5 0.5V60.5H212.5Z" fill="black"/>
<path fill-rule="evenodd" clip-rule="evenodd" d="M203.5 60.5V0.5L204.5 0.5V60.5H203.5Z" fill="black"/>
<path fill-rule="evenodd" clip-rule="evenodd" d="M192.5 60.5V0.5L193.5 0.5V60.5H192.5Z" fill="black"/>
<path fill-rule="evenodd" clip-rule="evenodd" d="M187.5 60.5V0.5L188.5 0.5V60.5H187.5Z" fill="black"/>
<path fill-rule="evenodd" clip-rule="evenodd" d="M161.5 60.5V0.5L162.5 0.5V60.5H161.5Z" fill="black"/>
<path fill-rule="evenodd" clip-rule="evenodd" d="M159.5 61.5V1.5H160.5V61.5H159.5Z" fill="black"/>
<path fill-rule="evenodd" clip-rule="evenodd" d="M150.5 60.5V0.5L151.5 0.5V60.5H150.5Z" fill="black"/>
<path fill-rule="evenodd" clip-rule="evenodd" d="M116.5 60.5L116.5 0.5L117.5 0.5V60.5H116.5Z" fill="black"/>
<path fill-rule="evenodd" clip-rule="evenodd" d="M110.5 60.5V0.5L112.5 0.5V60.5H110.5Z" fill="black"/>
<path fill-rule="evenodd" clip-rule="evenodd" d="M133.5 60.5L133.5 0.5L135.5 0.5V60.5H133.5Z" fill="black"/>
<path fill-rule="evenodd" clip-rule="evenodd" d="M86.5 60.5V0.5L88.5 0.5V60.5H86.5Z" fill="black"/>
<path fill-rule="evenodd" clip-rule="evenodd" d="M83.5 60.5V0.5L85.5 0.5V60.5H83.5Z" fill="black"/>
<path fill-rule="evenodd" clip-rule="evenodd" d="M147.5 60.5L147.5 0.5L149.5 0.5V60.5H147.5Z" fill="black"/>
<path fill-rule="evenodd" clip-rule="evenodd" d="M172.5 60.5L172.5 0.5L174.5 0.5V60.5H172.5Z" fill="black"/>
<path fill-rule="evenodd" clip-rule="evenodd" d="M189.5 60.5L189.5 0.5L191.5 0.5V60.5H189.5Z" fill="black"/>
<path fill-rule="evenodd" clip-rule="evenodd" d="M214.5 60.5L214.5 0.5L216.5 0.5V60.5H214.5Z" fill="black"/>
<path fill-rule="evenodd" clip-rule="evenodd" d="M219.5 60.5L219.5 0.5L221.5 0.5V60.5H219.5Z" fill="black"/>
<path fill-rule="evenodd" clip-rule="evenodd" d="M242.5 60.5L242.5 0.5L244.5 0.5V60.5H242.5Z" fill="black"/>
<path fill-rule="evenodd" clip-rule="evenodd" d="M254.5 60.5L254.5 0.5L256.5 0.5V60.5H254.5Z" fill="black"/>
<path fill-rule="evenodd" clip-rule="evenodd" d="M34.5 60.5V0.5L35.5 0.5L35.5 60.5H34.5Z" fill="black"/>
<path fill-rule="evenodd" clip-rule="evenodd" d="M50.5 60.5V0.5L51.5 0.5L51.5 60.5H50.5Z" fill="black"/>
<path fill-rule="evenodd" clip-rule="evenodd" d="M59.5 60.5V0.5L60.5 0.5L60.5 60.5H59.5Z" fill="black"/>
<path fill-rule="evenodd" clip-rule="evenodd" d="M61.5 60.5V0.5L62.5 0.5L62.5 60.5H61.5Z" fill="black"/>
<path fill-rule="evenodd" clip-rule="evenodd" d="M77.5 60.5L77.5 0.5L78.5 0.5V60.5H77.5Z" fill="black"/>
<path fill-rule="evenodd" clip-rule="evenodd" d="M79.5 60.5L79.5 0.5L80.5 0.5V60.5H79.5Z" fill="black"/>
<path fill-rule="evenodd" clip-rule="evenodd" d="M81.5 60.5L81.5 0.5L82.5 0.5V60.5H81.5Z" fill="black"/>
<path fill-rule="evenodd" clip-rule="evenodd" d="M20.5 60.5L20.5 0.5L26.5 0.5L26.5 60.5H20.5Z" fill="black"/>
<path fill-rule="evenodd" clip-rule="evenodd" d="M27.5 60.5L27.5 0.5L33.5 0.5L33.5 60.5H27.5Z" fill="black"/>
<path fill-rule="evenodd" clip-rule="evenodd" d="M36.5 60.5V0.5L42.5 0.5L42.5 60.5H36.5Z" fill="black"/>
<path fill-rule="evenodd" clip-rule="evenodd" d="M43.5 60.5V0.5L49.5 0.5L49.5 60.5H43.5Z" fill="black"/>
<path fill-rule="evenodd" clip-rule="evenodd" d="M52.5 60.5V0.5L58.5 0.5L58.5 60.5H52.5Z" fill="black"/>
<path fill-rule="evenodd" clip-rule="evenodd" d="M63.5 60.5V0.5L69.5 0.5V60.5H63.5Z" fill="black"/>
<path fill-rule="evenodd" clip-rule="evenodd" d="M70.5 60.5L70.5 0.5L76.5 0.5V60.5H70.5Z" fill="black"/>
<path fill-rule="evenodd" clip-rule="evenodd" d="M165.5 60.5V0.5L171.5 0.5V60.5H165.5Z" fill="black"/>
<path fill-rule="evenodd" clip-rule="evenodd" d="M196.5 60.5V0.5L202.5 0.5V60.5H196.5Z" fill="black"/>
<path fill-rule="evenodd" clip-rule="evenodd" d="M205.5 60.5V0.5L211.5 0.5V60.5H205.5Z" fill="black"/>
<path fill-rule="evenodd" clip-rule="evenodd" d="M245.5 60.5V0.5L251.5 0.5V60.5H245.5Z" fill="black"/>
<path fill-rule="evenodd" clip-rule="evenodd" d="M266.5 60.5V0.5L272.5 0.5V60.5H266.5Z" fill="black"/>
<path fill-rule="evenodd" clip-rule="evenodd" d="M259.5 60.5V0.5L265.5 0.5V60.5H259.5Z" fill="black"/>
<path fill-rule="evenodd" clip-rule="evenodd" d="M103.5 60.5L103.5 0.5L109.5 0.5V60.5H103.5Z" fill="black"/>
<path fill-rule="evenodd" clip-rule="evenodd" d="M115.5 60.5L115.5 0.5L121.5 0.5V60.5H115.5Z" fill="black"/>
<path fill-rule="evenodd" clip-rule="evenodd" d="M124.5 60.5L124.5 0.5L130.5 0.5V60.5H124.5Z" fill="black"/>
<path fill-rule="evenodd" clip-rule="evenodd" d="M140.5 60.5V0.5L146.5 0.5V60.5H140.5Z" fill="black"/>
<path fill-rule="evenodd" clip-rule="evenodd" d="M152.5 60.5V0.5L158.5 0.5V60.5H152.5Z" fill="black"/>
</svg>
