<svg width="237" height="188" viewBox="0 0 237 188" fill="none" xmlns="http://www.w3.org/2000/svg">
<path d="M67.9525 87.8062C66.8282 85.058 64.1316 83.1202 60.9797 83.1202C58.7018 83.1202 56.6642 84.1354 55.2828 85.7341C53.3872 81.421 49.0841 78.4056 44.072 78.4056C42.3027 78.4056 40.6254 78.788 39.1065 79.4635C36.5626 75.4081 32.0652 72.7032 26.9263 72.7032C19.4618 72.7032 13.3276 78.3921 12.6141 85.6723C11.2333 84.1102 9.22091 83.1202 6.9728 83.1202C3.82095 83.1202 1.12434 85.058 0 87.8062H67.9525Z" fill="#4DA7F0" fill-opacity="0.5"/>
<path d="M219.017 64.6047C216.739 64.6047 214.702 65.6205 213.32 67.2192C211.425 62.9055 207.122 59.8901 202.11 59.8901C200.34 59.8901 198.663 60.2731 197.144 60.9486C194.6 56.8932 190.103 54.1883 184.964 54.1883C177.499 54.1883 171.365 59.8772 170.652 67.1569C169.271 65.5953 167.259 64.6047 165.01 64.6047C161.859 64.6047 159.162 66.5426 158.038 69.2913H225.99C224.866 66.5426 222.169 64.6047 219.017 64.6047Z" fill="#4DA7F0" fill-opacity="0.5"/>
<path d="M80.596 18.9652C80.596 18.9652 78.1616 15.6325 80.9873 9.45009C83.813 3.26708 84.2076 0.754789 91.6733 1.33373C93.9797 1.51229 95.2809 3.15926 93.6873 6.19771C92.5646 8.33883 94.4238 11.7299 94.4945 13.5678C94.6876 18.6154 91.3881 19.3325 89.2012 18.9366C82.005 17.6327 80.596 18.9652 80.596 18.9652Z" fill="#0F1D29"/>
<path d="M90.6051 14.0279C90.6051 14.0279 95.5111 17.7728 100.304 18.5359C107.432 19.6713 109.024 19.5001 110.796 18.9144C112.568 18.3281 113.301 19.2754 113.065 20.3059C112.829 21.3368 113.379 25.5764 104.419 26.4282C95.4595 27.2806 88.3127 24.5213 88.6961 20.7837C89.08 17.0462 90.6051 14.0279 90.6051 14.0279Z" fill="#E67E22"/>
<path d="M79.5409 14.7671C79.5409 14.7671 74.6702 24.7056 74.6702 30.6C74.6702 36.6718 81.5448 39.708 81.5448 39.708C81.5448 39.708 84.8942 23.1653 84.4272 20.5632C83.9607 17.961 79.5409 14.7671 79.5409 14.7671Z" fill="#E67E22"/>
<path d="M96.0843 31.8525C87.6897 32.834 81.221 31.1399 81.221 31.1399C81.221 31.1399 77.1053 16.8237 79.5398 14.7679C80.8252 13.6825 82.9959 13.2922 85.3995 13.3034L85.4629 13.3074C85.9311 13.3074 86.4104 13.3259 86.8898 13.359H86.9044C87.7891 13.4186 88.6849 13.5191 89.5617 13.6527C89.6622 13.6679 89.7588 13.6825 89.8592 13.6971C91.4646 13.9503 94.5295 18.4111 94.5295 18.4111C94.5295 18.4111 95.1582 16.9191 94.74 19.1479C92.3667 31.8031 104.475 30.8676 96.0843 31.8525Z" fill="#E67E22"/>
<path d="M89.1475 11.5026C89.1475 11.5026 88.5435 12.8486 89.1475 13.5932C89.7515 14.3366 89.1391 15.8769 87.7723 15.8241C86.4049 15.7713 84.8742 14.71 84.8276 13.6639C84.781 12.6178 86.0355 10.2481 86.0355 10.2481L89.1475 11.5026Z" fill="#FFC09C"/>
<path d="M85.272 3.98043C85.272 3.98043 83.776 7.74774 86.2588 10.844C87.4269 12.3001 88.7988 12.1563 90.4676 10.2516C90.9335 9.71984 91.3624 9.02971 91.6301 7.89823C91.8339 7.03516 91.9287 6.3456 91.9725 5.8638C92.0696 4.78623 92.137 4.23705 91.6312 3.44024C90.6394 1.87918 86.7426 0.605628 85.272 3.98043Z" fill="#FFD8BC"/>
<path d="M92.2305 2.8303C92.2305 2.8303 92.3242 0.435371 88.2973 0.036684C86.1597 -0.175013 84.4505 0.439301 81.8487 4.31218C81.4564 4.89617 79.302 6.56392 79.302 6.56392C79.302 6.56392 74.7586 8.87911 76.0716 12.2258C77.4283 15.6832 74.1468 15.6989 74.0671 18.0163C73.9548 21.2625 80.9854 23.4632 83.613 14.4922L83.6135 14.4916L83.6141 14.491V14.4899C88.2782 -1.54964 92.2305 2.8303 92.2305 2.8303Z" fill="#0F1D29"/>
<path d="M91.4548 1.84951C91.4548 1.84951 91.7557 4.70995 89.1185 5.44331C89.1185 5.44331 88.0043 5.56348 87.8702 6.31593C87.736 7.06782 88.1048 8.38068 87.1876 9.9232C86.2709 11.4663 85.7422 10.6397 84.7256 13.5664C83.9201 15.8872 82.0789 13.4272 84.0256 9.87884C85.9723 6.33053 87.0832 0.917372 91.4548 1.84951Z" fill="#0F1D29"/>
<path d="M237 182.876C237 185.706 186.235 188 123.612 188C60.9894 188 10.2241 185.706 10.2241 182.876C10.2241 180.046 60.9894 177.752 123.612 177.752C186.235 177.752 237 180.046 237 182.876Z" fill="#EDEBFF"/>
<path d="M10.2239 182.876H237C237 182.876 235.105 169.885 223.317 170.446C211.53 171.008 216.907 156.573 202.057 142.861C191.111 132.754 167.667 132.564 154.092 145.835C140.518 159.105 76.9634 141.879 58.4688 151.986C39.9742 162.094 47.2714 171.64 33.7996 169.955C20.3278 168.271 11.3465 176.143 10.2239 182.876Z" fill="#3498DB"/>
<path d="M173.282 181.751V33.1393C173.282 32.5188 172.779 32.0151 172.158 32.0151H62.6146C61.9938 32.0151 61.4908 32.5188 61.4908 33.1393V181.751C61.4908 182.372 61.9938 182.876 62.6146 182.876H172.158C172.779 182.876 173.282 182.372 173.282 181.751Z" fill="#2B77B5"/>
<path d="M68.334 38.8614H167.739V177.332H68.334V38.8614Z" fill="#81B4E3" fill-opacity="0.52"/>
<path d="M68.334 38.8616H166.438V176.03H68.334V38.8616Z" fill="white"/>
<path d="M140.518 87.0879H82.5126V77.3706H140.518V87.0879Z" fill="#3498DB"/>
<path d="M140.518 111.094H82.5126V101.376H140.518V111.094Z" fill="#3498DB"/>
<path d="M158.982 111.157H149.203V101.376H158.982V111.157Z" fill="#3498DB"/>
<path d="M140.518 135.099H82.5126V125.382H140.518V135.099Z" fill="#3498DB"/>
<path d="M158.982 135.163H149.203V125.382H158.982V135.163Z" fill="#3498DB"/>
<path d="M140.518 159.105H82.5126V149.388H140.518V159.105Z" fill="#3498DB"/>
<path d="M158.982 159.169H149.203V149.388H158.982V159.169Z" fill="#3498DB"/>
<path d="M117.611 27.2816C116.635 27.2816 115.837 26.4899 115.837 25.5072C115.837 24.5245 116.635 23.7272 117.611 23.7272C118.594 23.7272 119.391 24.5245 119.391 25.5072C119.391 26.4899 118.594 27.2816 117.611 27.2816ZM137.51 31.8525L137.325 30.9148L137.235 30.4711L136.943 28.9943L135.635 22.4019C135.31 20.7567 134.434 19.6504 133.452 19.6504H101.782C100.8 19.6504 99.9239 20.7567 99.5927 22.4019L98.2848 28.9943L97.9929 30.4711L97.9031 30.9148L97.7179 31.8525L97.2407 34.2615H137.994L137.51 31.8525Z" fill="#2B77B5"/>
<path d="M137.51 31.8525H97.718L97.9032 30.9148L97.993 30.4712H137.235L137.325 30.9148L137.51 31.8525Z" fill="#81B4E3" fill-opacity="0.52"/>
<path d="M200.884 36.3604C200.884 38.7604 198.939 40.7056 196.541 40.7056C194.142 40.7056 192.197 38.7604 192.197 36.3604C192.197 33.961 194.142 32.0153 196.541 32.0153C198.939 32.0153 200.884 33.961 200.884 36.3604Z" fill="#FFCC26"/>
<path d="M141.476 57.4391L84.2082 66.6628L82.664 57.0691L139.933 47.8454L141.476 57.4391Z" fill="#3498DB"/>
<path d="M101.084 30.2642H80.1262C79.6446 30.2642 79.2511 30.6584 79.2511 31.1402C79.2511 31.6214 79.6446 32.0156 80.1262 32.0156H101.084C101.566 32.0156 101.96 31.6214 101.96 31.1402C101.96 30.6584 101.566 30.2642 101.084 30.2642Z" fill="#C6BFF5"/>
<path d="M124.951 14.8623H100.276C99.4615 14.8623 98.7183 15.3261 98.3596 16.0572L90.5397 32.0154H118.168L125.859 16.32C126.188 15.6473 125.7 14.8623 124.951 14.8623Z" fill="#3498DB"/>
<path d="M110.266 24.2228C109.982 24.8079 109.331 25.0769 108.81 24.8237C108.29 24.571 108.099 23.8921 108.383 23.3075C108.667 22.7224 109.319 22.4534 109.839 22.7061C110.36 22.9594 110.55 23.6377 110.266 24.2228Z" fill="#C6BFF5"/>
<path d="M62.8858 28.8579C61.8569 28.8579 61.0149 29.7002 61.0149 30.7295L33.9764 183.035C33.9764 184.064 34.8184 184.907 35.8478 184.907C36.8768 184.907 37.7187 184.064 37.7187 183.035L64.7567 30.7295C64.7567 29.7002 63.9147 28.8579 62.8858 28.8579Z" fill="#EDEBFF"/>
<path d="M92.3505 28.8579C91.3216 28.8579 90.4796 29.7002 90.4796 30.7295L63.441 183.035C63.441 184.064 64.283 184.907 65.3125 184.907C66.3414 184.907 67.1834 184.064 67.1834 183.035L94.2214 30.7295C94.2214 29.7002 93.3794 28.8579 92.3505 28.8579Z" fill="#EDEBFF"/>
<path d="M70.5468 152.742H39.8703V156.825H70.5468V152.742Z" fill="#EDEBFF"/>
<path d="M76.8993 119.896H46.2228V123.979H76.8993V119.896Z" fill="#EDEBFF"/>
<path d="M83.2519 87.0514H52.5754V91.1343H83.2519V87.0514Z" fill="#EDEBFF"/>
<path d="M89.6044 54.2059H58.9279V58.2893H89.6044V54.2059Z" fill="#EDEBFF"/>
<path d="M206.027 133.654C206.027 133.654 206.483 135.459 206.426 135.876C206.369 136.294 205.116 138.973 205.116 138.973C205.116 138.973 202.762 138.137 202.553 137.035C202.344 135.934 204.831 133.654 204.831 133.654H206.027Z" fill="#FFD8BC"/>
<path d="M208.851 137.659L201.082 184.124L193.305 182.822L201.073 136.357L208.851 137.659Z" fill="#EDEBFF"/>
<path d="M204.489 134.126C204.489 134.126 204.945 135.495 204.109 135.951C203.274 136.407 203.084 136.559 203.084 136.559C203.084 136.559 202.742 137.927 202.4 137.888C202.059 137.85 202.134 135.988 202.4 135.723C202.666 135.457 203.958 133.444 203.958 133.444L204.489 134.126Z" fill="#FFD8BC"/>
<path d="M187.859 107.445C188.848 106.483 190.026 104.541 191.387 104.764C192.887 105.009 197.759 106.943 202.02 112.009C207.743 118.816 208.16 133.644 206.191 134.349C205.729 134.514 204.34 134.507 203.707 134.188C203.39 134.029 203.19 133.708 203.177 133.354C203.084 130.893 201.75 121.383 199.707 119.328C189.208 108.763 182.149 113.001 187.859 107.445Z" fill="#E67E22"/>
<path d="M169.661 80.7337L160.391 83.8457L157.281 74.5726L166.55 71.4606L169.661 80.7337Z" fill="#3498DB"/>
<path d="M192.085 140.492C191.226 154.946 188.149 182.005 188.149 182.005C188.116 182.021 188.087 182.029 188.054 182.038C186.146 182.706 185.952 182.057 185.316 182.128C185.009 182.161 182.06 150.264 183.046 131.032L192.503 133.234C193.322 138.682 192.405 138.347 192.085 140.492Z" fill="#0F1D29"/>
<path d="M196.981 141.584C196.912 152.846 206.451 173.435 207.601 177.764C207.944 178.936 206.353 180.077 205.765 180.366C205.48 180.506 188.839 157.261 185.808 132.476L196.111 133.582C197.976 137.255 197.199 139.646 196.981 141.584Z" fill="#0F1D29"/>
<path d="M194.617 105.921C194.617 105.921 193.295 103.502 193.402 101.479C193.51 99.4562 193.396 98.2708 193.396 98.2708L189.515 100.372L189.411 105.437L194.617 105.921Z" fill="#FFCEAB"/>
<path d="M183.635 110.609C182.128 115.834 181.04 129.947 182.743 132.342C184.446 134.737 193.34 134.731 195.61 133.659C197.681 132.682 195.126 129.734 196.593 116.103C196.671 115.378 196.566 114.659 196.566 113.966C196.566 103.82 186.556 100.48 183.635 110.609Z" fill="#E67E22"/>
<path d="M190.704 91.392C190.704 91.392 189.718 91.6397 189.19 93.1878C188.365 95.6041 188.398 95.0195 187.203 97.4605C186.955 97.9659 186.618 100.494 186.947 101.544C187.155 102.204 188.708 102.691 188.708 102.691C189.25 102.83 190.99 103.029 193.443 100.976C194.375 100.195 197.809 94.9263 197.637 94.4737C197.464 94.0211 193.045 89.5817 190.704 91.392Z" fill="#FFD8BC"/>
<path d="M195.878 96.6223C195.878 96.6223 194.255 96.401 193.584 95.8788C192.914 95.3566 189.363 93.1284 188.987 91.7285C188.611 90.3286 189.545 89.383 189.545 89.383C189.545 89.383 190.274 90.0209 191.296 90.2742C192.68 90.6161 198.614 91.4809 198.466 95.0623C198.466 95.0623 196.673 96.7744 195.878 96.6223Z" fill="#0F1D29"/>
<path d="M192.756 94.8357C192.756 94.8357 192.536 94.6235 192.788 95.2698C192.788 95.2698 192.44 97.5316 192.351 98.0264C192.281 98.4144 192.559 98.7243 192.559 98.7243C192.559 98.7243 192.654 97.8753 193.42 97.4525C193.558 97.3755 193.81 97.3778 193.952 97.4485C194.183 97.5648 194.475 97.8023 194.408 98.2482C194.359 98.571 194.1 98.8945 193.801 99.1421C193.299 99.5565 193.122 100.247 193.384 100.843L193.443 100.976C193.443 100.976 197.567 97.5653 198.321 95.6258C199.076 93.6868 196.885 93.3993 196.885 93.3993L192.756 94.8357Z" fill="#0F1D29"/>
<path d="M194.617 105.921C194.617 105.921 196.442 108.865 196.566 113.966C196.566 113.966 186.825 105.197 188.175 103.889C188.175 103.889 192.361 104.763 194.617 105.921Z" fill="#E67E22"/>
<path d="M180.448 184.764C180.448 184.764 180.086 184.682 182.672 183.933C184.467 183.413 185.029 182.839 185.212 182.005H188.082C188.082 182.005 188.523 184.834 188.082 184.834C187.641 184.834 180.402 185.009 180.448 184.764Z" fill="#0F1D29"/>
<path d="M204.213 185.901C204.213 185.901 203.835 186.194 204.773 183.598C205.425 181.796 205.598 180.113 205.018 179.458L207.553 177.59C207.553 177.59 208.795 180.274 208.528 180.64C208.263 181.006 204.389 186.088 204.213 185.901Z" fill="#0F1D29"/>
<path d="M167.15 84.2048C167.15 84.2048 164.202 81.8172 164.389 81.2557C164.576 80.6941 165.909 77.9337 166.143 77.8399C166.377 77.7461 167.78 77.8163 167.921 78.0505C168.061 78.2846 170.353 80.5145 170.329 81.0019C170.306 81.4898 169.613 84.0858 169.613 84.0858L167.15 84.2048Z" fill="#FFD8BC"/>
<path d="M187.967 111.03C187.064 112.072 185.373 111.879 184.084 111.389C182.097 110.633 177.954 108.452 172.244 103.687C167.286 99.5485 165.49 85.4771 167.149 84.2047C167.779 83.7218 168.955 83.8211 169.612 84.0856C169.942 84.217 170.168 84.5197 170.211 84.8712C170.513 87.3156 173.487 95.0046 174.819 96.7324C176.802 99.307 182 102 187.832 103.776C191.825 104.993 190.627 107.961 187.967 111.03Z" fill="#E67E22"/>
<path d="M119.403 63.1931C119.403 63.1931 119.361 61.0082 119.684 60.7016C120.205 60.2058 121.309 59.0552 121.43 59.0754C121.551 59.0957 121.733 59.3792 121.693 59.5814C121.652 59.7835 121.326 60.6994 121.326 60.6994L124.72 60.1525C124.72 60.1525 124.187 61.6838 123.603 62.2807C123.432 62.4547 121.263 64.4038 121.263 64.4038L119.403 63.1931Z" fill="#FFCEAB"/>
<path d="M73.0664 53.9312C73.0664 53.9312 74.2918 52.1731 75.5548 52.1029C76.8178 52.0327 79.2736 52.738 79.5542 53.017C79.8349 53.2961 79.9752 54.2058 79.9752 54.2058H76.5208L73.0664 53.9312Z" fill="#FFCEAB"/>
<path d="M80.7937 76.3657C80.7937 76.3657 71.1574 69.3561 69.8551 64.2928C68.7437 59.9718 71.8411 53.6563 73.0665 53.9309C74.2919 54.206 75.7654 56.2478 75.7654 56.2478C75.7654 56.2478 74.806 58.6309 75.2686 60.5412C76.3794 65.134 85.7637 68.6194 85.7637 68.6194L87.2024 70.7038" fill="#E67E22"/>
<path d="M86.5575 98.0032C86.5575 98.0032 88.0781 99.5519 80.6063 108.927C72.7045 123.712 69.5931 149.896 69.5931 149.896H66.7236C66.7236 149.896 65.8715 108.927 75.5543 94.8497L86.5575 98.0032Z" fill="#0F1D29"/>
<path d="M85.6184 93.3755C85.6184 93.3755 64.0943 88.2982 57.826 90.5443C53.927 91.9419 58.6495 117.732 58.6495 117.732H61.2827C61.2827 117.732 63.2989 103.226 62.7376 99.2014C62.5406 97.7864 69.144 103.927 77.8373 103.848C82.2302 103.808 83.9743 96.6116 83.9743 96.6116L85.6184 93.3755Z" fill="#0F1D29"/>
<path d="M53.7675 119.826C53.7675 119.826 53.4055 119.744 55.9909 118.995C57.7861 118.476 58.3485 117.901 58.5315 117.068H61.401C61.401 117.068 61.8422 119.896 61.401 119.896C60.9598 119.896 53.7209 120.072 53.7675 119.826Z" fill="#0F1D29"/>
<path d="M61.9654 152.654C61.9654 152.654 61.6033 152.572 64.1888 151.823C65.9834 151.303 66.5464 150.729 66.7294 149.896H69.5989C69.5989 149.896 70.0401 152.724 69.5989 152.724C69.1577 152.724 61.9188 152.9 61.9654 152.654Z" fill="#0F1D29"/>
<path d="M77.784 53.9227C77.784 53.9227 77.8177 54.2085 77.9754 54.2787C78.1331 54.3489 80.2033 54.9986 80.2381 55.139C80.2735 55.2794 80.3083 55.8931 80.1152 55.8931C79.9226 55.8931 76.8701 56.339 76.7124 56.248C76.5547 56.1565 75.7649 56.248 75.7649 56.248L73.0666 53.9311C73.0666 53.9311 77.0492 53.0922 77.784 53.9227Z" fill="#FFCEAB"/>
<path d="M90.186 77.2533C90.4622 78.6049 92.4134 82.1375 93.7768 82.343C95.8796 82.6592 103.171 81.4811 109.013 78.9037C114.921 76.297 122.305 66.021 121.483 64.0978C121.171 63.3678 120.099 62.8781 119.396 62.7849C119.044 62.7383 119 62.9079 118.79 63.1931C117.328 65.1748 110.663 70.397 108.656 71.2494C105.665 72.5185 100.059 72.7594 94.1063 71.4448C90.0306 70.5453 89.3738 73.2732 90.186 77.2533Z" fill="#E67E22"/>
<path d="M98.8244 59.7131C98.8244 59.7131 99.5614 60.4134 99.2622 62.0216C98.7958 64.5316 99.0545 64.0066 98.8979 66.7194C98.8659 67.2809 97.9201 69.65 97.118 70.403C96.6139 70.8764 95.0208 70.5383 95.0208 70.5383C94.4803 70.394 92.867 69.7123 91.7371 66.7199C91.3071 65.5811 90.899 59.3049 91.2717 58.9949C91.6439 58.685 97.6725 56.9869 98.8244 59.7131Z" fill="#FFCEAB"/>
<path d="M89.1256 71.3462C89.1256 71.3462 90.6575 66.7978 91.5562 64.9824C92.4548 63.167 93.1037 64.3855 93.1037 64.3855L95.23 66.8074L94.2084 72.585L89.1256 71.3462Z" fill="#FFCEAB"/>
<path d="M90.41 67.8369C90.41 67.8369 90.3561 60.5415 91.2716 58.9951C92.1877 57.4486 96.9045 57.4868 99.3339 58.7356C100.654 59.414 101.73 59.2618 101.73 59.2618C101.73 59.2618 101.496 60.4983 100.081 60.9767C98.666 61.4551 97.8711 62.9539 97.8009 63.3014C97.7308 63.649 95.6937 67.8959 94.7417 68.3367C93.7891 68.7769 90.8804 68.9123 90.41 67.8369Z" fill="#0F1D29"/>
<path d="M99.9372 79.5466C98.6158 84.8216 89.2748 98.5746 86.5086 99.564C80.3329 101.775 71.2719 92.7195 73.2197 91.1343C76.728 88.28 75.9753 85.5139 79.4174 76.9147C82.302 69.7091 85.1266 68.3474 85.7637 68.6192C96.8853 73.3708 102.087 70.9658 99.9372 79.5466Z" fill="#E67E22"/>
<path d="M96.8337 65.3534C96.8337 65.3534 96.8219 64.0288 96.2606 63.985C95.6993 63.9418 95.1143 66.2581 95.4186 66.5388C95.7223 66.8196 96.237 66.8662 96.237 66.8662L96.8337 65.3534Z" fill="#FFCEAB"/>
</svg>
