<svg width="177" height="161" viewBox="0 0 177 161" fill="none" xmlns="http://www.w3.org/2000/svg">
<path opacity="0.2" d="M172.938 156.875C172.938 159.153 135.19 161 88.625 161C42.0595 161 4.3111 159.153 4.3111 156.875C4.3111 154.597 42.0595 152.75 88.625 152.75C135.19 152.75 172.938 154.597 172.938 156.875Z" fill="#4DA7F0" fill-opacity="0.5"/>
<g opacity="0.1">
<path d="M43.4215 132.341C21.7812 117.548 10.995 83.3021 20.7496 58.6482C25.0232 47.8482 33.9121 43.7248 45.1027 46.535C56.8996 49.497 64.9208 41.8577 68.425 31.3694C70.6381 24.7456 71.4164 17.4692 74.465 11.1744C80.464 -1.21311 100.3 -3.39688 110.581 5.10058C115.373 9.06198 117.197 14.9244 120.987 19.6333C124.904 24.4999 129.174 25.5073 135.32 25.7935C144.247 26.2089 152.329 21.2898 161.215 24.2334C168.403 26.6142 172.431 30.0241 170.525 38.0371C167.224 51.9195 150.906 61.4614 155.848 77.2033C158.082 84.3207 165.18 89.1927 168.771 95.6762C181.261 118.23 148.406 131.293 132.543 137.563C124.218 140.854 114.847 143.825 105.975 145.083C86.0195 147.911 61.1132 144.434 43.4215 132.341Z" fill="#CDF7F7"/>
</g>
<g opacity="0.1">
<path d="M167.651 80.0169C178.51 81.1346 180.58 65.0669 170.296 63.3876C159.452 61.6173 156.852 78.9053 167.651 80.0169Z" fill="#CDF7F7"/>
</g>
<g opacity="0.1">
<path d="M64.6073 18.3073C65.5185 -5.27203 21.3396 2.92112 20.0585 21.3925C19.2837 33.3488 37.4907 37.2056 46.4004 35.2772C55.3102 32.9631 64.22 28.3348 64.6073 18.3073Z" fill="#CDF7F7"/>
</g>
<g opacity="0.1">
<path d="M5.7254 137.099C5.7254 142.957 12.0517 148.243 17.7792 148.339C21.5081 148.401 30.0584 146.409 30.9114 142.123C31.9736 136.784 21.4504 130.646 16.9854 129.61C11.1828 128.262 5.72502 130.506 5.7254 137.099Z" fill="#CDF7F7"/>
</g>
<g opacity="0.2">
<path d="M163.629 31.4331L162.869 31.4231C162.616 31.4134 162.36 31.4408 162.105 31.4481C161.597 31.4786 161.085 31.5326 160.579 31.6414C160.325 31.6842 160.077 31.764 159.829 31.8404C159.577 31.9044 159.34 32.0193 159.099 32.1138C158.623 32.3225 158.17 32.5917 157.76 32.9076C157.567 33.0784 157.353 33.2343 157.176 33.4198C156.996 33.6026 156.803 33.7862 156.645 33.9829C156.306 34.3628 155.965 34.7708 155.685 35.1858C155.393 35.5939 155.085 36.0482 154.849 36.4845C154.848 36.4872 154.845 36.4902 154.843 36.4949C154.997 36.2129 155.133 35.9125 155.241 35.6244C155.43 35.1542 155.625 34.7091 155.797 34.2806C155.942 33.8406 156.087 33.4271 156.215 33.0349C156.474 32.2508 156.705 31.5727 156.837 30.9973C156.934 30.6127 157.016 30.2884 157.084 30.0211L157.108 30.0034C157.369 29.8186 157.62 29.6219 157.86 29.4044C158.095 29.1857 158.315 28.9493 158.522 28.7021C158.932 28.2053 159.285 27.6592 159.585 27.0868C159.888 26.5148 160.122 25.9097 160.329 25.2991C160.532 24.6859 160.697 24.0618 160.836 23.4324C161.391 20.9112 161.462 18.3286 161.527 15.7916L161.526 15.7781C161.53 15.6847 161.492 15.5918 161.419 15.5227C161.281 15.3935 161.064 15.4012 160.935 15.5378L160.26 16.2544C160.028 16.487 159.833 16.7523 159.626 17.0088C159.42 17.2645 159.214 17.5194 159.038 17.7991C158.859 18.0764 158.656 18.3356 158.5 18.6267C158.341 18.9156 158.17 19.1972 158.023 19.4915L157.619 20.3928L157.286 21.3223L157.022 22.2711L156.839 23.2361L156.724 24.2107C156.676 24.861 156.653 25.5113 156.67 26.1588C156.683 26.8072 156.738 27.4524 156.814 28.0923C156.884 28.7017 156.966 29.306 157.056 29.9085C156.965 30.1854 156.848 30.5395 156.708 30.9606C156.543 31.5288 156.277 32.1925 155.974 32.9539C155.826 33.333 155.665 33.738 155.497 34.1645C155.31 34.5834 155.112 35.025 154.905 35.4844C154.518 36.4146 154.008 37.3812 153.484 38.4086C153.236 38.9286 152.929 39.438 152.628 39.9637C152.321 40.4848 152.042 41.0371 151.712 41.574C151.048 42.6427 150.388 43.7624 149.624 44.8423C149.079 45.6781 148.477 46.4892 147.873 47.3022C147.994 46.8914 148.069 46.4529 148.102 46.0256C148.087 46.1181 148.069 46.2103 148.052 46.3029C148.135 45.5639 148.124 44.6699 147.918 43.6362C148.033 44.2021 148.115 44.7841 148.123 45.341C148.127 45.5604 148.12 45.7911 148.102 46.0256C148.149 45.7467 148.186 45.4679 148.197 45.1848C148.24 44.3205 148.171 43.4469 148.014 42.5891C147.692 40.877 147.134 39.1989 146.21 37.6766C146.19 37.6434 146.163 37.6122 146.13 37.5867C145.983 37.4687 145.767 37.4961 145.65 37.6427L145.642 37.655C144.985 38.4815 144.633 39.5198 144.533 40.5342C144.483 41.0417 144.475 41.5636 144.526 42.065C144.574 42.5664 144.648 43.0836 144.761 43.5672C144.985 44.5388 145.29 45.5226 145.687 46.4225C145.809 46.7052 145.942 46.979 146.077 47.2528C146.261 47.7596 146.465 48.2047 146.684 48.5522C146.714 48.6201 146.741 48.6868 146.771 48.7535C146.119 49.5955 145.474 50.4386 144.779 51.2243C144.349 51.7245 143.933 52.2336 143.499 52.7149C143.114 53.1315 142.735 53.5422 142.36 53.9491C142.4 53.8288 142.427 53.7062 142.458 53.5843C142.479 53.6684 142.491 53.7185 142.491 53.7185C142.491 53.7185 142.485 53.6483 142.474 53.5253C142.488 53.4697 142.507 53.4153 142.519 53.3594C142.815 52.4261 143.101 51.0669 143.03 49.3965C142.893 46.1108 141.859 44.1835 141.885 43.1996C141.885 43.1996 139.889 44.9804 139.985 48.6216C140.06 51.4981 141.23 53.6595 141.719 54.4417L141.72 54.4447C141.032 55.161 140.252 56.0403 139.599 56.6937C138.967 57.2838 138.394 57.8762 137.82 58.4088L137.99 58.0397C138.131 57.6803 138.247 57.3112 138.342 56.9344C138.425 56.5541 138.474 56.1699 138.513 55.7823C138.542 55.3962 138.555 55.009 138.555 54.6222C138.56 53.0725 138.293 51.5563 138.149 50.0645L138.149 50.0568C138.138 49.9442 138.077 49.8396 137.97 49.7829C137.797 49.6954 137.597 49.7617 137.51 49.931C137.327 50.2836 137.14 50.6349 136.992 51.006C136.911 51.1872 136.836 51.3712 136.773 51.5617C136.707 51.7527 136.634 51.9374 136.586 52.1333C136.537 52.3293 136.469 52.5186 136.437 52.718C136.404 52.9167 136.353 53.1118 136.338 53.3147C136.288 53.715 136.266 54.1177 136.281 54.5184C136.297 55.3233 136.467 56.1059 136.661 56.8615C136.847 57.5538 137.048 58.2307 137.26 58.906C137.252 58.9118 137.245 58.9199 137.237 58.926C136.475 59.5898 135.801 60.2158 135.155 60.7261C134.519 61.2433 133.98 61.715 133.498 62.0547C132.553 62.7683 132.018 63.1759 132.018 63.1759C132.018 63.1759 132.591 62.8118 133.585 62.1701C134.089 61.855 134.66 61.4218 135.331 60.9405C136.011 60.4688 136.74 59.888 137.525 59.2415C137.596 59.1856 137.67 59.1227 137.742 59.0645C137.948 59.338 138.18 59.6114 138.451 59.8247C138.76 60.075 139.119 60.3434 139.497 60.4939C140.262 60.7862 141.11 60.9548 141.911 60.89C143.522 60.7612 145.03 60.323 146.522 60.1799L146.526 60.1791C146.604 60.1714 146.653 59.8837 146.709 59.8189C146.835 59.6758 146.798 59.2115 146.654 59.0838C146.012 58.5188 145.261 58.1389 144.491 57.8585C143.716 57.5835 142.908 57.423 142.092 57.3656C141.277 57.3193 140.45 57.3856 139.659 57.6082C139.533 57.6436 139.41 57.6903 139.288 57.735C139.523 57.5252 139.764 57.3123 140.01 57.0971C140.773 56.3867 141.576 55.6315 142.362 54.8208C142.511 54.9411 142.663 55.0557 142.828 55.1575C143.063 55.2952 143.309 55.4178 143.566 55.5173C144.075 55.7183 144.614 55.849 145.158 55.9273C145.703 56.0002 146.251 56.0157 146.799 56.0022C147.347 55.9871 147.889 55.9485 148.431 55.8811C149.517 55.7522 150.573 55.5351 151.627 55.2902C152.683 55.0472 153.706 54.783 154.743 54.5732C154.864 54.55 154.981 54.4378 155.02 54.3113C155.076 54.1266 154.675 53.9904 154.675 53.9904L152.083 53.1519C151.19 52.8843 150.301 52.5587 149.339 52.5425C148.377 52.5364 147.44 52.693 146.525 52.8688C145.606 53.0435 144.707 53.2815 143.811 53.5307L143.801 53.5345C143.792 53.5357 143.784 53.5399 143.778 53.5449C143.582 53.6788 143.392 53.8184 143.197 53.9545C143.453 53.6815 143.707 53.413 143.968 53.1373C144.411 52.6571 144.836 52.1484 145.278 51.6485C145.906 50.9531 146.498 50.2099 147.089 49.4644C147.104 49.4952 147.201 49.3232 147.201 49.3232C147.415 49.0548 147.628 48.7859 147.843 48.5183C147.927 48.4006 148.013 48.2834 148.099 48.1654C148.113 48.1542 148.127 48.1415 148.142 48.1287L148.668 47.8522C148.898 47.7623 149.119 47.6586 149.35 47.5791C149.817 47.4245 150.293 47.3034 150.776 47.2147C151.258 47.1232 151.743 47.0411 152.235 46.9724C152.724 46.9011 153.217 46.8348 153.712 46.7534C154.207 46.6705 154.706 46.5841 155.196 46.4452C155.44 46.3696 155.689 46.3168 155.928 46.2161C156.165 46.1208 156.415 46.0514 156.645 45.9276C156.873 45.8073 157.119 45.7186 157.333 45.5678C157.547 45.4197 157.782 45.3005 157.977 45.1277C158.175 44.9584 158.389 44.8053 158.571 44.6194L159.107 44.0524C159.14 44.0161 159.168 43.9714 159.183 43.9209C159.236 43.7435 159.135 43.5591 158.96 43.5063L158.94 43.4986C158.487 43.3647 158.032 43.2367 157.565 43.1391C157.102 43.0388 156.631 42.9536 156.151 42.9108C155.675 42.8556 155.189 42.8506 154.705 42.888C154.463 42.8915 154.221 42.9493 153.982 42.979C153.741 43.0176 153.507 43.0932 153.27 43.1487C152.805 43.298 152.358 43.5005 151.944 43.7523C151.744 43.8877 151.531 44.0038 151.348 44.1604C151.161 44.3093 150.967 44.4508 150.8 44.6209C150.628 44.7837 150.449 44.9426 150.295 45.1231C150.2 45.2334 150.099 45.3402 150.004 45.4505C150.056 45.3688 150.113 45.2881 150.166 45.2056C150.923 44.1056 151.58 42.9663 152.237 41.881C152.857 40.7721 153.446 39.6914 153.94 38.6374C154.105 38.2814 154.263 37.9435 154.42 37.6002C154.715 37.2732 154.983 37.1316 155.307 36.9554C155.722 36.7355 156.208 36.4914 156.658 36.3421C157.554 36.0367 158.476 35.7906 159.395 35.4901C160.313 35.1932 161.228 34.8221 162.064 34.2594C162.48 33.979 162.865 33.6385 163.189 33.2381C163.351 33.0383 163.497 32.8239 163.624 32.5994C163.75 32.3726 163.852 32.137 163.944 31.894C163.957 31.8593 163.964 31.8192 163.966 31.7787C163.97 31.5905 163.818 31.4354 163.629 31.4331ZM146.785 48.7366C146.775 48.7104 146.762 48.6876 146.752 48.6625C146.767 48.6845 146.783 48.7003 146.797 48.7211C146.794 48.7254 146.79 48.7308 146.785 48.7366ZM148.304 47.9883C148.344 47.9486 148.382 47.9062 148.43 47.873C148.465 47.851 148.501 47.8379 148.537 47.8221L148.304 47.9883Z" fill="#4DA7F0" fill-opacity="0.5"/>
<path d="M150.906 36.6413C151.356 37.6357 152.006 38.5551 152.856 39.2409L152.867 39.2509L152.905 39.1838C152.935 39.1306 152.961 39.075 152.989 39.021C153.011 39.0762 153.023 39.1094 153.023 39.1094C153.023 39.1094 153.015 39.0719 152.999 39.0029C153.437 38.1505 153.597 37.1748 153.674 36.2213C153.738 35.1919 153.668 34.1591 153.545 33.1389C153.422 32.1172 153.214 31.1064 152.945 30.1117C152.679 29.1147 152.342 28.1373 151.892 27.1851C151.869 27.1384 151.835 27.0952 151.791 27.0597C151.64 26.9456 151.425 26.9706 151.31 27.121L151.305 27.1264C150.596 28.0355 150.225 29.1301 150.03 30.2143C149.836 31.3077 149.849 32.4188 149.988 33.5046C150.145 34.5887 150.45 35.6486 150.906 36.6413Z" fill="#4DA7F0" fill-opacity="0.5"/>
</g>
<g opacity="0.2">
<path d="M39.5852 76.8055L39.268 76.5756C37.2315 74.3768 34.9181 72.48 32.5423 69.6444C29.3572 65.8427 26.6436 62.6057 23.502 58.7607C24.9984 65.5249 32.1777 75.3125 39.5852 76.8055Z" fill="#4DA7F0" fill-opacity="0.5"/>
<path d="M55.4121 95.4022C55.1169 95.1168 54.7589 94.7708 54.3483 94.374C53.9435 93.9717 53.4864 93.5174 52.9878 93.0225C52.4986 92.5177 51.9558 91.9854 51.4065 91.3961C50.8491 90.816 50.2723 90.1939 49.6749 89.5513C49.0699 88.9157 48.4776 88.2284 47.8589 87.5469C47.709 87.3707 47.5552 87.1936 47.403 87.0174L47.4177 87.0212C47.4041 87.0097 47.3909 86.9989 47.3774 86.9877C46.9315 86.472 46.4822 85.9548 46.0514 85.4199C45.7519 85.0612 45.4521 84.7021 45.1538 84.3442C44.8645 83.9797 44.5755 83.6168 44.2896 83.2565C43.9553 82.8423 43.6399 82.4227 43.3304 82.0057C43.4579 74.0274 43.0073 63.9105 37.0827 56.1146C38.4986 61.4208 39.5236 64.9379 40.7206 69.7883C41.7147 73.8168 41.3153 72.1703 42.0966 76.3813L43.2847 81.9452C43.0744 81.6617 42.8656 81.3782 42.6572 81.1032C42.1667 80.3778 41.6473 79.7067 41.2165 79.0294C40.7749 78.3591 40.3522 77.7277 40.0067 77.1183C39.8273 76.8171 39.6553 76.5286 39.4919 76.2544C39.3338 75.9771 39.1967 75.7075 39.0611 75.4576C39.0084 75.3588 38.9577 75.2643 38.9073 75.1706C37.4221 66.6527 34.9595 56.5805 30.3702 49.3303C31.5997 58.0982 33.5599 67.0222 38.32 74.2048L38.3963 74.358C38.5354 74.6997 38.7245 75.0827 38.9317 75.52C39.0564 75.7777 39.1823 76.0565 39.3284 76.3419C39.4837 76.6231 39.6476 76.9181 39.818 77.2263C40.1485 77.8492 40.5548 78.4948 40.9794 79.1818C41.3947 79.8748 41.8909 80.5671 42.3837 81.2969C42.9086 82.0034 43.4292 82.7513 44.0037 83.476C44.2876 83.8405 44.5743 84.208 44.8621 84.5771C45.1585 84.9389 45.456 85.3026 45.7535 85.6655C45.7721 85.6887 45.7926 85.7103 45.8112 85.7334C43.2475 83.7946 41.1526 82.7806 38.8442 81.5121C34.8437 79.3426 31.0981 78.1126 27.0763 75.8066C32.9703 82.437 39.6995 84.9061 46.3923 86.7624L46.7746 86.8588C47.0473 87.1686 47.3208 87.4763 47.5877 87.7845C48.2153 88.4633 48.8165 89.1464 49.429 89.7793C49.7327 90.0971 50.0321 90.4106 50.3246 90.7165C50.6248 91.0154 50.9184 91.3085 51.2043 91.5932C51.7715 92.1663 52.3308 92.6862 52.8356 93.1772C53.8571 94.146 54.7438 94.9159 55.3613 95.4566C55.9908 95.9846 56.3503 96.2858 56.3503 96.2858C56.3503 96.2858 56.009 95.9649 55.4121 95.4022Z" fill="#4DA7F0" fill-opacity="0.5"/>
<path d="M53.285 93.1873C52.4261 91.606 52.091 88.3045 51.4666 86.2835C49.7625 81.8685 47.5327 77.7849 44.6409 74.0464C46.4264 76.5075 47.3282 79.8903 48.3125 82.7093C49.2546 85.116 50.7511 91.5122 53.285 93.1873Z" fill="#4DA7F0" fill-opacity="0.5"/>
</g>
<g opacity="0.2">
<path d="M160.316 97.4353C163.552 96.3168 166.501 94.2873 168.84 91.8089C162.764 93.4346 157.114 96.9343 152.157 98.9734C152.617 98.0339 153.087 97.0419 153.57 95.9947L153.571 95.9955C158.076 94.2738 161.539 94.3548 166.85 87.8135C162.14 89.3131 160.748 92.0719 153.92 95.2334C154.072 94.899 154.226 94.56 154.381 94.2144C154.757 93.4554 155.104 92.6582 155.428 91.8359C159.802 89.0312 165.424 87.6319 167.067 81.4115C164.957 82.3711 162.61 84.7647 160.993 86.3846C158.554 88.826 157.899 89.3586 155.647 91.2635C156.203 89.7836 156.681 88.2324 157.098 86.6742C159.442 85.0416 161.918 83.9744 164.46 79.8449C161.668 81.1851 159.354 83.9328 157.241 86.1289C157.618 84.6698 157.941 83.2135 158.223 81.8126C160.456 80.0616 164.088 77.1115 164.547 73.8602C162.773 74.8136 159.94 78.1922 158.468 80.5561C158.657 79.5614 158.825 78.6049 158.977 77.7101C160.325 75.1167 162.204 70.3597 162.185 67.8835C159.134 69.6967 158.518 75.8414 158.27 78.9427C158.276 78.9346 158.282 78.925 158.287 78.9169C158.108 79.5772 157.918 80.2745 157.722 80.9877C157.724 77.7922 157.602 74.3982 157.008 71.2764C155.969 74.3689 156.093 78.9605 157.439 82.0167C157.044 83.4437 156.638 84.8939 156.259 86.2099C156.121 83.0144 155.517 80.0909 154.15 77.0016C153.179 82.1189 154.749 84.1966 155.978 87.1776C155.6 88.4673 155.261 89.5704 155.009 90.2993C154.904 90.6055 154.753 91.0248 154.566 91.5273C153.254 88.0924 152.105 84.2887 149.931 81.1894C149.008 84.9753 152 89.0906 154.337 92.1371C154.01 92.9925 153.599 94.0316 153.119 95.1767C148.671 93.0458 148.689 88.1036 145.865 83.7233C145.7 88.998 147.683 93.7566 152.88 95.7437C152.446 96.7623 151.964 97.8507 151.44 98.9661C145.675 96.1475 143.522 89.069 141.549 84.8195C141.449 93.4295 147.698 97.3686 151.181 99.5134C150.446 101.05 149.638 102.617 148.782 104.095C145.971 99.4717 142.612 95.0028 138.756 92.6069C140.698 96.7869 144.848 101.667 148.489 104.595C148.027 105.374 147.551 106.121 147.066 106.821C143.64 102.419 139.446 96.8641 134.993 93.7543C135.905 98.3262 141.651 105.841 146.642 107.418C146.172 108.061 145.696 108.659 145.215 109.188C144.759 109.69 144.304 110.188 143.837 110.688C140.901 107.084 136.642 100.401 133.397 98.2761C134.99 104.53 138.864 109.1 143.304 111.251C142.459 112.132 141.553 113.022 140.495 113.942C137.324 110.215 132.891 99.7868 131.769 101.247C131.983 105.974 136.337 111.283 139.883 114.465C138.876 115.307 137.728 116.179 136.384 117.096C134.164 113.001 131.605 102.209 130.272 102.926C128.917 106.873 133.373 113.291 135.762 117.514C134.968 118.04 134.107 118.581 133.167 119.141C131.136 115.598 130.823 110.1 128.85 107.068C127.06 107.597 130.086 116.324 132.471 119.551C130.989 120.412 129.324 121.316 127.428 122.276C126.642 118.667 127.782 114.332 127.324 110.91C125.222 113.334 124.961 119.626 126.762 122.608C124.911 123.532 122.859 124.503 120.555 125.536L124.629 124.639C125.646 124.258 126.662 123.838 127.675 123.385C130.653 125.146 140.322 125.911 139.84 125.023C137.234 124.246 131.356 123.468 128.288 123.102C129.575 122.506 130.852 121.851 132.109 121.139C135.592 123.945 146.115 124.483 146.082 123.139C145.322 122.247 136.66 121.197 132.797 120.747C134.1 119.983 135.378 119.153 136.622 118.264C140.298 119.254 152.486 122.716 153.131 119.453C153.131 119.453 147.124 118.534 145.879 118.505C141.386 118.401 140.791 117.963 137.29 117.785C138.39 116.972 139.455 116.105 140.485 115.193C142.807 115.8 146.507 116.797 149.175 117.046C151.946 117.302 154.909 117.326 155.914 115.945C155.156 115.039 145.451 114.591 140.979 114.751C142.084 113.745 143.142 112.685 144.139 111.566C148.406 113.225 154.893 114.638 159.089 112.633C159.638 111.261 149.446 111.463 144.643 110.983C145.501 109.983 146.312 108.941 147.07 107.856C148.232 108.455 150.96 109.703 152.276 109.786C155.537 110.303 159.586 109.772 162.659 108.645C159.055 105.969 151.204 107.7 147.412 107.375C147.945 106.596 148.484 105.747 149.034 104.822C154.861 106.215 161.423 105.047 166.611 102.259C160.526 101.983 155.32 103.719 149.437 104.131C149.767 103.559 150.1 102.956 150.439 102.327C154.044 102.296 161.619 101.941 167.777 97.6173C161.663 98.0084 155.848 100.674 150.728 101.786C151.103 101.077 151.483 100.33 151.872 99.5485C153.974 98.9692 156.786 98.6556 160.316 97.4353Z" fill="#4DA7F0" fill-opacity="0.5"/>
</g>
<g opacity="0.2">
<path d="M73.5345 70.9963C71.3598 69.7151 69.4287 68.5225 67.6924 67.4002C69.8153 64.6352 70.2581 58.3539 68.4405 55.7123C67.603 59.0624 68.2522 63.4962 67.0672 66.9956C65.2899 65.832 63.7365 64.7493 62.3601 63.7292C65.0912 60.7868 69.0723 52.4494 67.3531 51.7247C65.0536 54.5197 64.1289 59.9495 61.7144 63.2448C60.8435 62.5849 60.0471 61.9512 59.3173 61.341C62.163 57.4085 67.3082 51.523 66.4021 47.4497C65.1578 46.5908 61.4099 57.0321 58.7455 60.8562C57.5125 59.7963 56.4692 58.8024 55.562 57.854C59.4416 55.084 64.3617 50.2899 65.102 45.6162C64.1502 44.0414 58.5797 53.9142 55.0115 57.267C54.064 56.2349 53.2621 55.2502 52.521 54.281C57.1735 52.6353 61.5339 48.5227 63.8159 42.484C60.3531 44.2366 55.3749 50.4064 52.0542 53.6628C51.6456 53.1147 51.2497 52.5689 50.8526 52.0201C50.4338 51.4412 50.0267 50.7948 49.632 50.1032C54.7686 49.0889 61.3181 42.2561 62.7343 37.8137C57.9622 40.4109 53.1742 45.4673 49.2771 49.4626C48.8735 48.7125 48.4841 47.9176 48.1111 47.0926C52.0566 44.5856 56.7265 40.1953 59.124 36.2559C55.0231 38.2102 51.1865 42.28 47.876 46.563C47.1911 44.9991 46.5627 43.3529 46.0041 41.745C49.7044 39.999 56.355 36.7766 57.2165 28.2082C54.7814 32.2124 51.8513 39.0089 45.8073 41.1719C45.4114 40.0056 45.0535 38.8705 44.7362 37.8102C50.1224 36.411 52.6249 31.9015 53.0498 26.6407C49.7544 30.6812 49.2206 35.5945 44.5619 37.2201C44.2137 36.0291 43.9204 34.9511 43.6922 34.0648C46.3543 31.296 49.7873 27.5371 49.293 23.6729C46.7866 26.5115 45.2201 30.1648 43.5323 33.4335C43.4025 32.9132 43.2998 32.4797 43.2289 32.1638C43.06 31.4109 42.847 30.2762 42.6149 28.9514C44.1687 26.1255 45.9615 24.2367 45.5679 19.0439C43.8654 21.9623 42.938 24.8006 42.4441 27.9609C42.2144 26.6114 41.9723 25.1254 41.7402 23.6636C43.4195 20.7752 44.0541 16.226 43.3672 13.0375C42.4286 16.0741 41.9285 19.433 41.5733 22.6084C41.4586 21.8787 41.3474 21.1651 41.2432 20.4898C41.2475 20.4983 41.2521 20.5087 41.2568 20.5176C41.3571 17.4078 41.4307 11.2333 38.6017 9.09351C38.3057 11.5523 39.6426 16.4867 40.692 19.2136C40.7431 20.1199 40.8039 21.0892 40.8799 22.0985C39.6809 19.5865 37.2431 15.9152 35.5863 14.7716C35.68 18.0534 38.9592 21.3869 40.9833 23.3747C41.1069 24.7975 41.2657 26.2805 41.4764 27.7723C39.6224 25.356 37.6293 22.3692 35.0052 20.7285C37.0703 25.1142 39.4113 26.4483 41.5585 28.3304C41.7983 29.9249 42.1009 31.5201 42.4871 33.052C40.4623 30.9099 39.8711 30.3075 37.72 27.6115C36.2937 25.8231 34.2289 23.1842 32.2385 21.9971C33.1772 28.3605 38.6083 30.3738 42.6417 33.6452C42.8718 34.498 43.1282 35.3291 43.4168 36.1248C43.5323 36.4854 43.6469 36.8391 43.7612 37.1885C37.328 33.2911 36.2534 30.3946 31.7404 28.3837C36.2875 35.4722 39.7386 35.775 44.0227 37.9846L44.0238 37.9842C44.3872 39.0784 44.744 40.1163 45.0965 41.1009C40.3972 38.5253 35.1737 34.422 29.3165 32.1337C31.3638 34.8555 34.0678 37.1993 37.1591 38.6688C40.532 40.2729 43.2909 40.8953 45.3142 41.703C45.6125 42.5226 45.9077 43.3078 46.2005 44.0534C41.2366 42.3814 35.7556 39.0884 29.7229 38.0231C35.3601 43.0024 42.8481 44.193 46.4279 44.6222C46.6937 45.2849 46.9583 45.9212 47.2217 46.5264C41.4214 45.4661 36.4412 43.1647 30.3632 42.7652C35.2082 46.1098 41.5984 47.9974 47.5455 47.2573C47.9883 48.2377 48.4291 49.1413 48.8723 49.9748C45.0671 49.8776 37.4573 47.2881 33.5781 49.549C36.5059 51.0092 40.4696 51.985 43.7689 51.8327C45.0856 51.8951 47.936 50.9568 49.1582 50.4905C49.7896 51.6533 50.4799 52.7788 51.221 53.8672C46.3938 53.8124 36.2875 52.4837 36.6799 53.9073C40.6257 56.366 47.2306 55.6791 51.6556 54.5028C52.5222 55.725 53.4554 56.8956 54.4405 58.0172C50.0151 57.3634 40.3193 56.7351 39.4651 57.5509C40.3092 59.0354 43.2572 59.3397 46.0386 59.3902C48.7189 59.4388 52.5063 58.8583 54.8821 58.512C55.8041 59.5314 56.7664 60.511 57.7685 61.4413C54.2693 61.2307 53.6286 61.5994 49.1516 61.206C47.9112 61.0969 41.839 61.3453 41.839 61.3453C42.116 64.6599 54.6148 62.5683 58.379 61.9913C59.516 63.0114 60.6925 63.978 61.9026 64.882C58.0133 64.9013 49.288 64.9861 48.4334 65.7888C48.2506 67.1205 58.768 67.7515 62.543 65.3483C63.7133 66.1949 64.9087 66.9867 66.1212 67.7218C63.0322 67.7457 57.103 67.8684 54.4262 68.352C53.849 69.1809 63.5428 69.4914 66.6992 68.0705C67.6545 68.6332 68.6183 69.1635 69.5856 69.6545L73.5345 70.9963Z" fill="#4DA7F0" fill-opacity="0.5"/>
</g>
<path opacity="0.2" d="M79.3933 115.133C79.3019 115.145 79.1593 115.162 78.9513 115.165C78.5407 115.175 77.9061 115.144 77.0977 115.053C76.696 115.008 76.2443 114.949 75.7713 114.869C75.2843 114.777 74.7575 114.677 74.1946 114.571C73.0681 114.353 71.8235 114.081 70.5176 113.608C70.1887 113.491 69.8598 113.359 69.5193 113.228C69.1827 113.088 68.8205 112.947 68.4881 112.802C68.0202 112.597 67.5359 112.393 67.0451 112.188C65.5185 110.392 64.5717 106.937 63.6861 105.03C62.7096 103.006 61.9263 102.138 59.688 102.209C58.025 102.247 55.7658 102.698 54.286 101.729C52.8654 100.826 52.707 99.0381 51.1524 98.2552C49.5386 97.4063 48.0576 97.6447 46.4547 97.7496C44.4108 97.7669 42.9907 96.8652 41.3091 96.0757C39.2521 95.1392 37.0669 95.4038 34.9153 95.0339C31.9399 94.5572 28.8645 93.5656 25.8762 93.3427C24.2875 93.1938 22.4982 93.2251 20.9301 92.6963C23.9377 93.7481 25.6717 95.9384 27.8546 98.089C29.9239 99.9796 32.3362 100.236 34.7015 101.38C36.7515 102.443 37.8943 104.921 39.9374 106.111C41.1165 106.746 41.9533 107.808 43.1991 108.383C44.4387 109.085 45.5707 109.4 46.5213 110.723C47.465 112.171 47.8182 113.908 49.7679 114.457C52.2208 115.161 55.1316 113.281 57.5562 114.492C58.4267 114.92 58.9419 116.028 59.9545 116.21C61.0264 116.458 62.0855 115.752 63.0652 115.359C64.3528 114.875 66.8786 113.921 68.6927 113.712C68.8697 113.787 69.0448 113.861 69.2207 113.937C69.5658 114.077 69.9048 114.221 70.2426 114.346C71.5942 114.863 72.893 115.169 74.0215 115.408C74.589 115.524 75.1201 115.633 75.6113 115.735C76.1191 115.826 76.5743 115.891 76.9935 115.944C77.8283 116.047 78.4934 116.091 78.968 116.084C79.2039 116.084 79.3991 116.064 79.5347 116.047C79.6815 116.018 79.7578 116.002 79.7578 116.002L79.5107 115.108C79.5099 115.108 79.4704 115.117 79.3933 115.133Z" fill="#4DA7F0" fill-opacity="0.5"/>
<path opacity="0.2" d="M161.798 52.1452C159.236 53.6941 156.947 55.9666 154.512 57.7354C152.763 59.0367 150.695 59.7876 149.289 61.5514C148.15 63.0143 147.296 64.4594 145.466 65.367C143.99 65.9972 142.561 66.4534 141.51 67.9399C140.481 69.3395 141.154 71.0046 140.3 72.4501C139.422 73.9824 137.203 74.6007 135.704 75.3177C133.677 76.2653 133.375 77.3931 133.426 79.637C133.505 81.7363 134.236 85.2438 133.694 87.5336C133.349 87.9374 133.011 88.3381 132.687 88.7319C132.457 89.0115 132.198 89.3016 131.962 89.5777C131.718 89.8481 131.486 90.1157 131.245 90.3672C130.298 91.3781 129.312 92.1826 128.407 92.8861C127.954 93.2348 127.53 93.5611 127.138 93.8631C126.753 94.1485 126.377 94.4054 126.039 94.6267C125.361 95.0726 124.809 95.3877 124.438 95.5632C124.252 95.6542 124.117 95.7032 124.03 95.7341C123.954 95.7545 123.915 95.7649 123.915 95.7649L124.102 96.6732C124.102 96.6732 124.177 96.6528 124.321 96.6123C124.45 96.5679 124.633 96.4969 124.843 96.3901C125.269 96.1807 125.842 95.8417 126.539 95.3738C126.889 95.1366 127.265 94.8736 127.675 94.562C128.067 94.2499 128.49 93.9132 128.944 93.5541C129.84 92.8302 130.858 91.9717 131.828 90.901C132.071 90.6368 132.308 90.3556 132.552 90.0745C132.673 89.9275 132.796 89.7829 132.919 89.6352C134.632 89.003 137.317 88.7115 138.686 88.561C139.737 88.4693 141.003 88.6197 141.845 87.9146C142.665 87.296 142.619 86.0757 143.2 85.3008C144.809 83.1267 148.26 83.4865 150.125 81.7521C151.612 80.3818 151.136 78.6751 151.317 76.9576C151.562 75.3501 152.427 74.5575 153.212 73.3723C154.06 72.297 154.321 70.9729 155.083 69.8741C156.362 67.8909 156.252 65.1668 157.594 63.2935C159.181 61.2058 161.214 59.8883 162.197 57.2679C163.162 54.3656 163.709 51.6303 165.911 49.3347C164.755 50.5153 163.146 51.2956 161.798 52.1452Z" fill="#4DA7F0" fill-opacity="0.5"/>
<path opacity="0.2" d="M87.089 30.6857C86.2898 27.9419 84.4633 25.6197 82.6973 23.4201C80.8925 21.1715 79.2546 18.7517 77.1294 16.7809C74.8079 14.6279 71.7042 13.6687 69.0955 11.9405C66.1731 10.0043 63.6916 7.49775 61.301 4.96031L59.8088 3.06543C59.5218 6.78423 59.5663 6.41397 59.3502 7.58376C58.8268 10.4201 58.6362 13.3671 58.9942 16.2505C59.2913 18.6433 60.2702 21.2244 59.5601 23.6253C59.2278 24.7503 58.4774 25.8568 58.5956 27.0617C58.7002 28.1282 58.9888 29.4279 59.3568 30.44C59.9468 32.0626 60.0324 33.5158 60.2776 35.2256C60.5886 37.3403 61.1364 39.3247 62.1754 41.1297C63.6245 43.7277 65.6649 46.2154 66.1336 49.1697C66.3815 48.1673 67.7994 46.4252 68.3843 45.3595C69.3803 43.6964 70.788 42.8259 71.4992 41.041C72.1218 39.7084 72.9387 37.5559 73.0918 36.0502C73.1406 35.2352 73.2188 33.9324 73.3006 33.0233C73.4683 33.3411 73.6345 33.6554 73.7995 33.9551C74.3252 34.9193 74.8137 35.8269 75.2479 36.6692C75.4567 37.0923 75.6582 37.498 75.8487 37.8837C76.0266 38.2737 76.1823 38.6474 76.3361 38.9961C76.4101 39.1719 76.491 39.3382 76.5511 39.504C76.6096 39.671 76.6673 39.8318 76.7215 39.9857C76.8311 40.2939 76.9315 40.5766 77.0221 40.8319C77.174 41.3499 77.2662 41.763 77.3421 42.0411C77.4142 42.3203 77.4525 42.4684 77.4525 42.4684L78.6096 42.2165C78.6096 42.2165 78.5643 42.0576 78.4787 41.7607C78.3896 41.4652 78.2769 41.0255 78.0983 40.479C77.9948 40.2121 77.8809 39.9167 77.7558 39.595C77.6935 39.4342 77.6288 39.2668 77.5614 39.0936C77.4928 38.9205 77.4041 38.7508 77.3223 38.5706C77.1523 38.2127 76.9784 37.829 76.7831 37.4317C76.5763 37.0418 76.3589 36.6326 76.1319 36.2052C75.6647 35.361 75.1449 34.4592 74.5932 33.5143C74.4429 33.2582 74.2957 33.0002 74.1485 32.7387C75.2305 33.2929 76.5162 33.9598 76.9164 34.1457C79.7322 35.4554 82.6976 36.3877 85.491 37.7063C86.0012 37.9478 88.5138 38.7573 88.6354 39.3189C88.0176 36.4633 87.9091 33.4996 87.089 30.6857Z" fill="#4DA7F0" fill-opacity="0.5"/>
<path d="M109.325 10.7209H89.6868C87.1448 10.7209 85.0844 12.7728 85.0844 15.3037V20.0384C85.0844 22.5693 87.1448 24.6207 89.6868 24.6207H109.325C111.868 24.6207 113.928 22.5689 113.928 20.0384V15.3037C113.928 12.7728 111.868 10.7209 109.325 10.7209ZM99.5054 18.9696C98.4041 18.9696 97.5108 18.0806 97.5108 16.9841C97.5108 16.4557 97.7219 15.9794 98.0585 15.6238C97.9745 15.4321 97.9264 15.2208 97.9264 14.9986C97.9264 14.1304 98.633 13.4262 99.5054 13.4262C100.377 13.4262 101.084 14.1304 101.084 14.9986C101.084 15.2208 101.036 15.4321 100.953 15.6238C101.289 15.9794 101.5 16.4561 101.5 16.9841C101.5 18.0806 100.607 18.9696 99.5054 18.9696Z" fill="#4DA7F0"/>
<path d="M113.928 20.0383C113.928 20.0383 113.894 19.5465 113.853 18.6853C113.815 17.8271 113.762 16.6014 113.698 15.1304C113.69 15.0382 113.682 14.9457 113.674 14.8516C113.658 14.7659 113.641 14.6795 113.625 14.592C113.601 14.4184 113.534 14.2402 113.486 14.0601C113.355 13.7092 113.207 13.3478 112.976 13.0226C112.541 12.36 111.884 11.7938 111.1 11.449C110.706 11.2832 110.286 11.1521 109.847 11.1146C109.425 11.0734 108.935 11.095 108.447 11.093C107.474 11.0977 106.486 11.1023 105.498 11.1065C104.51 11.1023 103.522 11.0977 102.549 11.0934C101.576 11.0934 100.619 11.0707 99.6925 11.0606C97.8401 11.034 96.1104 10.9924 94.6283 10.9426C93.1462 10.8994 91.9104 10.8292 91.0462 10.7964C90.1816 10.7556 89.6873 10.7212 89.6873 10.7212C89.6873 10.7212 90.1812 10.6873 91.0462 10.646C91.9104 10.6132 93.1462 10.5427 94.6283 10.4999C96.1104 10.4501 97.8401 10.4084 99.6925 10.3818C100.619 10.3718 101.576 10.3491 102.549 10.3491C103.522 10.3448 104.51 10.3402 105.498 10.3359C106.486 10.3406 107.475 10.3448 108.447 10.3494C108.931 10.3537 109.41 10.3394 109.935 10.4042C110.446 10.464 110.934 10.6279 111.384 10.8339C112.288 11.2543 113.006 11.9473 113.464 12.7179C113.705 13.099 113.861 13.5117 113.98 13.9136C114.023 14.1203 114.082 14.3155 114.098 14.5249C114.11 14.6275 114.123 14.7285 114.134 14.8292C114.136 14.9233 114.138 15.0166 114.14 15.1088C114.139 15.8686 114.094 16.5293 114.071 17.1337C114.045 17.733 114.022 18.256 114.003 18.6861C113.962 19.5465 113.928 20.0383 113.928 20.0383Z" fill="#81B4E3" fill-opacity="0.41"/>
<path d="M99.5055 18.9697L99.2169 18.9454C99.1193 18.9446 99.0275 18.9145 98.9345 18.8863C98.8438 18.8536 98.7419 18.8447 98.6598 18.7911L98.4003 18.6576C98.3178 18.6067 98.2434 18.5431 98.1636 18.4856C98.0799 18.4316 98.0156 18.3576 97.9505 18.2839C97.8885 18.2083 97.808 18.1439 97.7646 18.0544L97.6058 17.8006C97.5643 17.7104 97.5322 17.6151 97.4946 17.521C97.4508 17.4281 97.4357 17.3282 97.4206 17.2275C97.4097 17.1226 97.3741 17.0354 97.3807 16.9136L97.3861 16.6243C97.3904 16.5271 97.4248 16.416 97.4454 16.3103C97.4644 16.1985 97.5035 16.1001 97.5488 16.0049C97.5953 15.91 97.6251 15.8028 97.6918 15.7183L97.8746 15.4506L97.8266 15.7249C97.7747 15.5856 97.6995 15.4479 97.6759 15.2971L97.6383 15.0692L97.6298 15.0117L97.6309 14.9311L97.634 14.8339C97.6375 14.768 97.636 14.707 97.6429 14.6365C97.6592 14.5543 97.6801 14.4714 97.703 14.3889C97.7402 14.213 97.8277 14.0938 97.8955 13.9461C97.9869 13.8192 98.076 13.6827 98.1938 13.5758C98.3108 13.4659 98.4351 13.3641 98.5808 13.2931C98.7175 13.2052 98.8725 13.1589 99.0274 13.1115C99.1812 13.0617 99.3459 13.0625 99.5059 13.0413C99.7236 13.0663 99.7631 13.0548 99.9552 13.1045C100.128 13.152 100.301 13.2071 100.431 13.2923C100.577 13.3629 100.701 13.4663 100.819 13.5739C100.937 13.6807 101.026 13.8176 101.118 13.9445C101.184 14.0884 101.277 14.2207 101.307 14.3773L101.366 14.6048C101.376 14.682 101.377 14.7607 101.381 14.8378L101.385 14.9535L101.386 14.9824L101.386 14.9971L101.384 15.0318L101.384 15.0349L101.383 15.041L101.374 15.0889L101.34 15.2809C101.322 15.4055 101.244 15.5849 101.188 15.7253L101.139 15.4495L101.322 15.7175C101.389 15.8016 101.418 15.9092 101.465 16.0045C101.511 16.1009 101.549 16.1989 101.566 16.3046C101.586 16.4083 101.62 16.5082 101.626 16.6127L101.633 16.924C101.637 17.0547 101.604 17.1238 101.593 17.2267C101.578 17.3212 101.564 17.4165 101.519 17.5156C101.482 17.6124 101.449 17.7104 101.407 17.8018L101.248 18.0556C101.204 18.1451 101.124 18.2095 101.062 18.2851C100.996 18.3591 100.932 18.4332 100.848 18.4872C100.769 18.5442 100.694 18.6083 100.612 18.6592L100.352 18.7922C100.269 18.8459 100.168 18.8543 100.078 18.8875C99.9851 18.9157 99.8925 18.9457 99.7945 18.9465L99.5055 18.9697ZM99.5055 18.9697L99.7929 18.9365C99.8901 18.933 99.9808 18.9002 100.072 18.8694C100.161 18.8339 100.26 18.8231 100.34 18.7672L100.59 18.6252C100.666 18.5685 100.733 18.4991 100.805 18.4374C100.88 18.3796 100.936 18.3016 100.991 18.2257C101.044 18.1478 101.115 18.0826 101.148 17.9931L101.265 17.7397C101.291 17.6522 101.308 17.5631 101.33 17.4778C101.358 17.3964 101.359 17.2996 101.361 17.2021C101.359 17.1137 101.378 16.9915 101.356 16.9309L101.306 16.6683C101.288 16.5823 101.243 16.5028 101.214 16.421C101.188 16.3377 101.142 16.2629 101.092 16.1919C101.041 16.1217 101.009 16.0411 100.942 15.9833L100.766 15.7982L100.685 15.7114L100.718 15.522C100.726 15.4726 100.736 15.4248 100.748 15.3789C100.76 15.3322 100.777 15.2933 100.775 15.2204L100.783 15.026L100.785 14.9774V14.9712L100.785 14.9682V14.967C100.782 15.0299 100.784 14.984 100.783 14.9975L100.781 14.9878L100.777 14.9682L100.761 14.8906C100.751 14.8393 100.745 14.788 100.732 14.7383C100.711 14.6905 100.694 14.6422 100.676 14.5944C100.652 14.4938 100.575 14.4174 100.53 14.3283C100.461 14.2554 100.402 14.1721 100.32 14.1139C100.24 14.0545 100.167 13.9866 100.073 13.9503C99.9831 13.8929 99.9029 13.8817 99.8266 13.8535C99.7704 13.8223 99.5434 13.8246 99.5051 13.8115C99.4086 13.8288 99.3064 13.8161 99.2126 13.847C99.1185 13.8751 99.0205 13.8948 98.9368 13.9499C98.8427 13.9858 98.7706 14.0552 98.6885 14.1127C98.6068 14.1709 98.5479 14.2546 98.4781 14.3275C98.4351 14.4131 98.3534 14.5026 98.336 14.5836C98.3205 14.6249 98.3027 14.6654 98.2806 14.707C98.2662 14.7637 98.2577 14.8328 98.2461 14.8953L98.2294 14.9913L98.2256 15.0152L98.2232 15.0272C98.224 15.0144 98.2217 15.0584 98.2248 14.9986V14.9998V15.0021L98.2252 15.0071L98.2267 15.0464L98.2306 15.205C98.2287 15.3126 98.2755 15.4128 98.2903 15.5228L98.3162 15.7183L98.2422 15.797L98.0667 15.9825C97.9997 16.0404 97.968 16.121 97.9164 16.1912C97.8653 16.2637 97.8204 16.3373 97.796 16.4145C97.7681 16.4943 97.7231 16.5622 97.7038 16.6555L97.6519 16.9402C97.6321 17.01 97.6491 17.1137 97.6472 17.2005C97.6484 17.2915 97.6488 17.3841 97.6774 17.4716C97.6999 17.56 97.7169 17.6518 97.7437 17.7405L97.8614 17.9935C97.8951 18.083 97.9656 18.1481 98.0183 18.2261C98.0737 18.3024 98.1295 18.3796 98.205 18.4378C98.2767 18.4995 98.3437 18.5685 98.4204 18.6252L98.6699 18.7668C98.7501 18.8227 98.8485 18.8331 98.9372 18.869C99.0282 18.8998 99.1193 18.933 99.2169 18.9361L99.5055 18.9697Z" fill="#81B4E3" fill-opacity="0.41"/>
<path d="M151.07 150.452C151.07 152.656 149.275 154.443 147.061 154.443H51.9508C49.7358 154.443 47.941 152.656 47.941 150.452V24.4105C47.941 22.2055 49.7358 20.4182 51.9508 20.4182H147.061C149.275 20.4182 151.07 22.2051 151.07 24.4105V150.452Z" fill="#2B77B5"/>
<path d="M131.418 27.3633C131.418 29.8101 129.426 31.7933 126.969 31.7933H72.0423C69.5852 31.7933 67.5933 29.8101 67.5933 27.3633C67.5933 24.9161 69.5852 22.9329 72.0423 22.9329H126.969C129.427 22.9329 131.418 24.9161 131.418 27.3633Z" fill="#3498DB"/>
<path d="M74.8628 26.016C74.8628 26.7866 74.2353 27.4114 73.4613 27.4114C72.6873 27.4114 72.0598 26.7866 72.0598 26.016C72.0598 25.2454 72.6873 24.6206 73.4613 24.6206C74.2353 24.621 74.8628 25.2454 74.8628 26.016Z" fill="#3B82B1"/>
<path d="M126.62 26.016C126.62 26.7866 125.992 27.4114 125.218 27.4114C124.444 27.4114 123.817 26.7866 123.817 26.016C123.817 25.2454 124.444 24.6206 125.218 24.6206C125.992 24.621 126.62 25.2454 126.62 26.016Z" fill="#3B82B1"/>
<path d="M55.3253 28.23H52.9197V131.337L66.258 145.75H143.391V28.23H55.3253Z" fill="#81B4E3" fill-opacity="0.52"/>
<path d="M126.346 20.4187C126.346 20.4187 127.931 20.3917 130.705 20.3439C133.479 20.3126 137.443 20.2374 142.198 20.2023C143.387 20.1923 144.626 20.1823 145.907 20.1715C146.552 20.1826 147.182 20.1113 147.909 20.2397C148.601 20.3786 149.272 20.6867 149.832 21.1519C150.387 21.6197 150.844 22.2295 151.102 22.9341C151.241 23.282 151.316 23.655 151.359 24.0306C151.39 24.4206 151.381 24.7604 151.387 25.1191C151.393 26.5434 151.399 27.9982 151.406 29.4781C151.422 35.3969 151.44 41.7102 151.457 48.0231C151.44 54.3364 151.423 60.6497 151.406 66.5685C151.393 72.4872 151.32 78.0111 151.288 82.7461C151.254 87.4812 151.177 91.4268 151.146 94.1887C151.098 96.951 151.07 98.5292 151.07 98.5292C151.07 98.5292 151.043 96.951 150.995 94.1887C150.964 91.4268 150.887 87.4808 150.853 82.7461C150.821 78.0111 150.748 72.4869 150.735 66.5685C150.718 60.6497 150.701 54.3364 150.683 48.0231C150.701 41.7098 150.719 35.3965 150.735 29.4781C150.742 27.9982 150.748 26.5434 150.754 25.1191C150.756 24.7658 150.767 24.3971 150.746 24.0839C150.714 23.7611 150.657 23.4398 150.541 23.1386C150.331 22.5284 149.944 21.9942 149.468 21.5788C148.988 21.1665 148.407 20.8885 147.805 20.7558C147.227 20.6354 146.541 20.6837 145.907 20.6655C144.626 20.6547 143.387 20.6447 142.198 20.6347C137.443 20.5996 133.479 20.5244 130.705 20.4931C127.931 20.4457 126.346 20.4187 126.346 20.4187Z" fill="#CECEF4"/>
<path d="M144.909 27.5083H54.1024V131.337L66.6481 144.828H144.909V27.5083Z" fill="#EDEDED"/>
<path d="M66.6481 131.337H54.1024L66.6481 144.828V131.337Z" fill="white"/>
<path d="M151.07 135.854C151.07 135.854 151.094 139.164 151.135 144.957C151.145 146.406 151.157 148.009 151.169 149.755C151.168 150.19 151.198 150.636 151.122 151.102C151.05 151.567 150.9 152.023 150.666 152.45C150.204 153.303 149.393 154.014 148.401 154.357C147.91 154.534 147.362 154.595 146.837 154.592C146.314 154.596 145.784 154.6 145.246 154.603C144.17 154.611 143.062 154.618 141.926 154.627C139.653 154.637 137.263 154.648 134.769 154.659C124.794 154.694 113.157 154.733 100.688 154.777C88.2194 154.793 74.9194 154.81 61.6195 154.828C59.9568 154.826 58.2946 154.824 56.6335 154.822L54.1434 154.819L52.8999 154.817L52.2782 154.816L51.9675 154.816L51.6382 154.8C50.7174 154.74 49.8543 154.379 49.1539 153.808C48.4659 153.229 47.9472 152.445 47.7241 151.575C47.6598 151.36 47.6311 151.137 47.5986 150.916C47.5843 150.697 47.5695 150.46 47.5738 150.264L47.5754 149.036C47.5765 148.218 47.5773 147.402 47.5785 146.587C47.5874 140.07 47.5959 133.656 47.604 127.449C47.6474 115.035 47.6877 103.448 47.7222 93.5167C47.8531 73.6542 47.9403 60.4124 47.9403 60.4124C47.9403 60.4124 48.0274 73.6542 48.1584 93.5167C48.1928 103.448 48.2331 115.035 48.2765 127.449C48.2846 133.656 48.2932 140.07 48.3017 146.587C48.3029 147.402 48.304 148.218 48.3048 149.036L48.3063 150.264C48.3029 150.477 48.3184 150.65 48.3288 150.839C48.3579 151.023 48.3803 151.208 48.4353 151.387C48.6213 152.109 49.0563 152.759 49.6281 153.24C50.2061 153.711 50.9413 154.01 51.6758 154.056C54.9492 154.08 58.3019 154.054 61.6187 154.058C74.9186 154.075 88.2182 154.093 100.687 154.109C113.156 154.152 124.794 154.192 134.769 154.227C137.262 154.238 139.652 154.249 141.925 154.259C143.062 154.267 144.169 154.275 145.245 154.283C145.783 154.287 146.314 154.291 146.836 154.294C147.355 154.303 147.844 154.254 148.311 154.095C149.24 153.788 150.012 153.133 150.459 152.335C150.685 151.937 150.834 151.503 150.907 151.072C150.986 150.642 150.963 150.191 150.971 149.754C150.983 148.009 150.995 146.405 151.005 144.957C151.047 139.164 151.07 135.854 151.07 135.854Z" fill="#8F8FCC"/>
<path d="M70.7361 53.4261H60.4848V43.2192H70.7361V53.4261ZM61.2867 52.6277H69.9338V44.0176H61.2867V52.6277Z" fill="#5D5D5E"/>
<path d="M59.5721 48.6061L65.6114 54.3656L76.8927 40.1696L74.8632 39.2744L65.6114 51.2897L61.2069 46.9211L59.5721 48.6061Z" fill="#D4645A"/>
<path d="M70.7361 77.1323H60.4848V66.925H70.7361V77.1323ZM61.2867 76.3335H69.9338V67.723H61.2867V76.3335Z" fill="#5D5D5E"/>
<path d="M70.7361 98.7154H60.4848V88.5098H70.7361V98.7154ZM61.2867 97.9174H69.9338V89.3078H61.2867V97.9174Z" fill="#5D5D5E"/>
<path d="M70.7361 119.986H60.4848V109.78H70.7361V119.986ZM61.2867 119.187H69.9338V110.578H61.2867V119.187Z" fill="#5D5D5E"/>
<path d="M137.364 109.78H74.8629V111.357H137.364V109.78Z" fill="#666C6D"/>
<path d="M132.521 112.656H74.8629V114.233H132.521V112.656Z" fill="#666C6D"/>
<path d="M138.841 115.532H74.8629V117.11H138.841V115.532Z" fill="#666C6D"/>
<path d="M134.652 118.408H74.8629V119.986H134.652V118.408Z" fill="#666C6D"/>
<path d="M134.652 88.5098H74.8629V90.0876H134.652V88.5098Z" fill="#666C6D"/>
<path d="M138.841 91.3857H74.8629V92.9636H138.841V91.3857Z" fill="#666C6D"/>
<path d="M136.202 94.262H74.8629V95.8398H136.202V94.262Z" fill="#666C6D"/>
<path d="M125.936 97.1379H74.8629V98.7158H125.936V97.1379Z" fill="#666C6D"/>
<path d="M138.841 66.9248H74.8629V68.5027H138.841V66.9248Z" fill="#666C6D"/>
<path d="M132.521 69.8008H74.8629V71.3786H132.521V69.8008Z" fill="#666C6D"/>
<path d="M136.202 72.677H74.8629V74.2548H136.202V72.677Z" fill="#666C6D"/>
<path d="M106.852 75.553H74.8629V77.1308H106.852V75.553Z" fill="#666C6D"/>
<path d="M134.652 43.2188H74.8629V44.7966H134.652V43.2188Z" fill="#666C6D"/>
<path d="M138.841 46.0947H74.8629V47.6726H138.841V46.0947Z" fill="#666C6D"/>
<path d="M128.648 48.9709H74.8629V50.5488H128.648V48.9709Z" fill="#666C6D"/>
<path d="M136.202 51.8469H74.8629V53.4248H136.202V51.8469Z" fill="#666C6D"/>
<path d="M59.5721 94.0405L65.6114 99.7996L76.8927 85.6044L74.8632 84.7092L65.6114 96.7242L61.2069 92.3547L59.5721 94.0405Z" fill="#D4645A"/>
<path d="M125.589 36.2074H73.4234C71.304 36.2074 69.5798 34.4907 69.5798 32.3806V29.1728C69.5798 27.0631 71.304 25.3464 73.4234 25.3464C73.8514 25.3464 74.1981 25.6916 74.1981 26.1178C74.1981 26.5436 73.8514 26.8892 73.4234 26.8892C72.1586 26.8892 71.1293 27.9136 71.1293 29.1728V32.3806C71.1293 33.6399 72.1586 34.6646 73.4234 34.6646H125.589C126.853 34.6646 127.882 33.6399 127.882 32.3806V29.1728C127.882 27.9136 126.853 26.8892 125.589 26.8892C125.161 26.8892 124.814 26.5436 124.814 26.1178C124.814 25.6916 125.161 25.3464 125.589 25.3464C127.708 25.3464 129.432 27.0631 129.432 29.1728V32.3806C129.432 34.4903 127.708 36.2074 125.589 36.2074Z" fill="#B0B0B0"/>
<path d="M147.014 127.645C145.96 129.17 142.881 130.093 141.527 129.958C136.922 129.419 136.245 124.43 135.297 120.654C134.891 118.632 134.078 117.553 136.245 116.609C138.547 115.53 141.797 116.205 143.964 117.014C145.59 117.553 147.486 118.362 148.298 119.845C149.246 121.463 149.517 125.374 147.892 126.453L147.014 127.645Z" fill="#3498DB"/>
<path d="M154.934 102.72C151.143 103.664 146.267 98.541 146.267 94.6298C146.267 90.7197 150.871 94.0909 152.497 95.7085C154.393 97.4619 155.341 99.754 155.611 102.181L154.934 102.72Z" fill="#3498DB"/>
<path d="M155.25 102.586C156.333 100.968 158.658 98.7671 160.69 97.8226C162.179 97.013 167.124 93.8207 168.478 94.8994C172.947 98.2703 157.237 102.316 155.341 102.855L155.25 102.586Z" fill="#3498DB"/>
<path d="M155.341 102.855C155.341 102.855 155.468 103.639 155.69 105.01C155.743 105.353 155.802 105.733 155.866 106.147C155.921 106.561 156.021 107.005 156.047 107.489C156.125 108.457 156.214 109.549 156.31 110.74C156.373 111.337 156.354 111.958 156.372 112.602C156.379 113.246 156.387 113.912 156.394 114.596C156.394 114.938 156.41 115.285 156.396 115.636C156.383 115.986 156.37 116.341 156.356 116.7C156.326 117.417 156.296 118.15 156.266 118.895C156.257 119.082 156.249 119.269 156.241 119.457L156.228 119.749L156.203 120.03C156.169 120.407 156.135 120.786 156.101 121.167C155.994 121.939 155.884 122.728 155.709 123.495C155.382 125.043 154.934 126.577 154.501 128.1C154.279 128.861 154.068 129.621 153.869 130.381C153.688 131.121 153.525 131.913 153.362 132.669C153.227 133.432 153.068 134.182 152.947 134.933C152.838 135.686 152.694 136.426 152.617 137.161C152.433 138.627 152.294 140.051 152.23 141.405C152.157 142.759 152.157 144.041 152.188 145.224C152.218 145.814 152.247 146.381 152.275 146.92C152.296 147.464 152.315 147.98 152.334 148.466C152.371 149.432 152.403 150.275 152.429 150.969C152.472 152.358 152.496 153.151 152.496 153.151C152.496 153.151 152.417 152.361 152.278 150.978C152.149 149.595 151.965 147.619 151.744 145.247C151.664 144.053 151.612 142.755 151.652 141.384C151.678 140.012 151.772 138.567 151.94 137.08C152.104 135.593 152.335 134.063 152.63 132.514C152.792 131.741 152.942 130.99 153.131 130.194C153.328 129.422 153.535 128.652 153.756 127.888C154.2 126.361 154.651 124.848 154.978 123.339C155.151 122.583 155.265 121.838 155.385 121.096C155.425 120.716 155.466 120.338 155.506 119.962L155.536 119.681L155.552 119.41C155.563 119.224 155.575 119.038 155.585 118.853C155.631 118.113 155.676 117.385 155.721 116.673C155.744 116.317 155.767 115.964 155.79 115.616C155.814 115.268 155.807 114.924 155.817 114.584C155.83 113.905 155.843 113.244 155.856 112.605C155.864 111.966 155.907 111.346 155.867 110.756C155.828 109.571 155.793 108.485 155.761 107.522C155.763 107.039 155.687 106.59 155.654 106.173C155.613 105.756 155.575 105.374 155.541 105.028C155.414 103.646 155.341 102.855 155.341 102.855Z" fill="#3B82B1"/>
<path d="M141.256 121.194C141.256 121.194 141.526 121.363 141.999 121.66C142.239 121.803 142.51 122.007 142.818 122.252C142.973 122.373 143.138 122.501 143.312 122.638C143.474 122.786 143.644 122.941 143.822 123.104C144.188 123.421 144.545 123.802 144.921 124.208C145.296 124.615 145.666 125.067 146.036 125.543C146.391 126.029 146.771 126.524 147.104 127.061C147.457 127.587 147.77 128.146 148.1 128.696C148.399 129.262 148.708 129.824 148.979 130.391C149.267 130.951 149.505 131.523 149.751 132.068C150.223 133.167 150.625 134.207 150.937 135.108C151.572 136.908 151.901 138.139 151.901 138.139C151.901 138.139 151.76 137.854 151.513 137.354C151.275 136.853 150.934 136.136 150.525 135.276C150.323 134.847 150.104 134.381 149.871 133.889C149.636 133.4 149.388 132.885 149.131 132.351C148.87 131.82 148.594 131.275 148.31 130.725C148.035 130.17 147.723 129.624 147.423 129.072C147.108 128.53 146.809 127.976 146.471 127.459C146.15 126.932 145.815 126.427 145.484 125.94C145.323 125.694 145.138 125.472 144.977 125.24C144.81 125.012 144.654 124.782 144.48 124.577C144.138 124.161 143.828 123.754 143.505 123.412C143.348 123.235 143.198 123.066 143.055 122.905C142.903 122.753 142.76 122.609 142.625 122.474C142.355 122.203 142.122 121.959 141.906 121.781C141.492 121.407 141.256 121.194 141.256 121.194Z" fill="#3B82B1"/>
<path d="M155.07 111.35C152.761 109.513 150.358 108.769 147.395 109.191C145.803 109.416 140.141 110.378 140.531 112.705C140.878 114.774 146.702 114.577 148.028 114.451C150.872 114.181 153.039 112.563 155.748 111.889L155.07 111.35Z" fill="#3498DB"/>
<path d="M156.288 114.047C157.237 111.889 158.099 110.602 160.758 108.653C161.977 107.76 167.123 105.417 168.478 105.822C170.644 106.632 168.884 109.328 167.665 110.407C165.227 112.43 160.893 114.317 157.643 114.451L156.288 114.047Z" fill="#3498DB"/>
<path d="M154.298 125.947C153.761 125.658 153.284 125.251 152.908 124.732C152.501 124.169 151.82 123.277 151.82 122.542C151.142 119.171 155.07 115.126 158.591 115.261C159.794 115.334 160.86 115.921 161.446 116.987C162.66 119.197 161.846 122.286 160.446 124.216C159.711 125.228 158.683 126.078 157.435 126.353C156.342 126.594 155.229 126.448 154.298 125.947Z" fill="#3498DB"/>
<path d="M150.871 137.914C150.195 134.543 143.829 135.891 141.527 136.296C143.152 140.341 147.35 141.015 150.33 138.049L150.871 137.914Z" fill="#3498DB"/>
<path d="M152.141 138.824C152.141 135.587 152.361 133.599 156.289 133.195C158.862 132.925 162.79 133.33 160.893 137.105C160.081 138.993 154.528 141.285 152.767 139.667C150.194 137.509 157.778 135.217 159.268 134.947" fill="#3498DB"/>
<path d="M149.941 95.5488C149.941 95.5488 150.397 95.8578 151.006 96.3892C151.313 96.6538 151.664 96.9631 152.004 97.3427C152.351 97.7129 152.711 98.1183 153.058 98.5352C153.377 98.9733 153.682 99.4219 153.956 99.8492C154.094 100.062 154.231 100.265 154.328 100.478C154.435 100.685 154.529 100.886 154.613 101.071C154.957 101.81 155.121 102.328 155.121 102.328C155.121 102.328 154.728 101.934 154.235 101.306C154.111 101.149 153.977 100.979 153.845 100.795C153.717 100.606 153.545 100.433 153.395 100.236C153.08 99.8531 152.757 99.4366 152.448 99.0096C152.109 98.6042 151.786 98.1877 151.491 97.7881C151.337 97.5926 151.21 97.3886 151.064 97.2084C150.921 97.0276 150.795 96.8494 150.677 96.6854C150.205 96.0305 149.941 95.5488 149.941 95.5488Z" fill="#3B82B1"/>
<path d="M144.612 137.254C144.612 137.254 144.728 137.224 144.932 137.182C145.135 137.144 145.423 137.083 145.775 137.053C146.127 137.017 146.54 136.986 146.98 136.995C147.201 137.002 147.429 136.99 147.66 137.015C147.892 137.032 148.126 137.056 148.362 137.08C148.595 137.113 148.829 137.154 149.057 137.198C149.287 137.233 149.508 137.3 149.723 137.358C150.153 137.466 150.543 137.617 150.868 137.763C151.033 137.828 151.179 137.902 151.305 137.977C151.432 138.046 151.54 138.113 151.629 138.167C151.806 138.276 151.902 138.345 151.902 138.345C151.902 138.345 151.781 138.337 151.575 138.311C151.368 138.291 151.088 138.226 150.742 138.188C150.571 138.166 150.386 138.141 150.194 138.105C150.001 138.073 149.793 138.06 149.584 138.023C149.374 137.987 149.156 137.962 148.933 137.936C148.712 137.906 148.487 137.875 148.262 137.845C147.81 137.796 147.36 137.723 146.933 137.671C146.719 137.648 146.514 137.604 146.318 137.581C146.123 137.558 145.938 137.525 145.766 137.494C145.423 137.434 145.131 137.383 144.93 137.335C144.727 137.288 144.612 137.254 144.612 137.254Z" fill="#3B82B1"/>
<path d="M157.877 101.429C157.877 101.429 158.036 101.349 158.319 101.22C158.454 101.148 158.616 101.06 158.802 100.96C158.985 100.853 159.192 100.731 159.417 100.599C159.865 100.33 160.38 100.002 160.963 99.6754C161.252 99.5184 161.55 99.3565 161.853 99.1918C162.158 99.029 162.469 98.8639 162.779 98.6992C163.102 98.5496 163.381 98.3595 163.678 98.1928C163.968 98.0177 164.265 97.8658 164.547 97.7057C165.098 97.3586 165.625 97.05 166.083 96.7905C166.969 96.2281 167.609 95.9019 167.609 95.9019C167.609 95.9019 167.134 96.4295 166.346 97.1472C165.942 97.4913 165.452 97.875 164.919 98.275C164.638 98.4582 164.352 98.656 164.05 98.8389C163.748 99.0178 163.448 99.2307 163.135 99.3831C162.821 99.54 162.506 99.6974 162.197 99.8521C162.038 99.9331 161.9 99.9994 161.721 100.08C161.569 100.148 161.419 100.214 161.271 100.279C160.977 100.419 160.684 100.545 160.407 100.669C160.129 100.792 159.863 100.903 159.61 100.996C159.114 101.192 158.669 101.302 158.362 101.367C158.055 101.411 157.877 101.429 157.877 101.429Z" fill="#3B82B1"/>
<path d="M156.545 113.771C156.545 113.771 156.647 113.632 156.834 113.398C156.925 113.279 157.05 113.144 157.17 112.976C157.292 112.81 157.429 112.623 157.585 112.428C157.739 112.23 157.913 112.007 158.102 111.783C158.281 111.553 158.514 111.327 158.744 111.093C158.808 111.031 158.848 110.983 158.932 110.908L159.121 110.753C159.247 110.649 159.375 110.544 159.508 110.443C159.771 110.239 160.039 110.031 160.306 109.823C160.6 109.639 160.894 109.455 161.183 109.273C161.471 109.092 161.764 108.921 162.046 108.769C162.613 108.472 163.15 108.208 163.617 107.999C164.548 107.58 165.204 107.361 165.204 107.361C165.204 107.361 164.678 107.805 163.836 108.384C163.42 108.68 162.931 109.012 162.397 109.351C162.129 109.519 161.878 109.718 161.601 109.891C161.329 110.071 161.053 110.254 160.777 110.436C160.504 110.637 160.23 110.838 159.961 111.035C159.828 111.136 159.692 111.231 159.557 111.323L159.357 111.462L159.192 111.602C158.966 111.81 158.724 111.977 158.517 112.182C158.306 112.381 158.102 112.559 157.908 112.73C157.714 112.904 157.532 113.056 157.372 113.19C157.216 113.331 157.058 113.421 156.938 113.51C156.691 113.679 156.545 113.771 156.545 113.771Z" fill="#3B82B1"/>
<path d="M145.739 111.192C145.739 111.192 145.892 111.141 146.161 111.063C146.432 110.991 146.811 110.872 147.285 110.792C147.756 110.699 148.311 110.607 148.909 110.561C149.208 110.538 149.517 110.496 149.834 110.503C150.15 110.5 150.471 110.496 150.792 110.493C151.113 110.518 151.434 110.542 151.751 110.566C152.067 110.577 152.375 110.647 152.673 110.698C152.971 110.753 153.259 110.798 153.526 110.877C153.794 110.952 154.044 111.033 154.273 111.109C154.388 111.148 154.497 111.183 154.602 111.218C154.702 111.264 154.798 111.309 154.887 111.351C155.066 111.433 155.218 111.511 155.343 111.574C155.594 111.703 155.731 111.782 155.731 111.782C155.731 111.782 155.568 111.763 155.293 111.72C155.156 111.696 154.989 111.671 154.802 111.633C154.708 111.616 154.609 111.597 154.504 111.577C154.397 111.565 154.285 111.552 154.168 111.539C153.934 111.513 153.683 111.483 153.421 111.443C153.157 111.403 152.872 111.405 152.585 111.371C152.009 111.306 151.386 111.301 150.768 111.264C150.146 111.257 149.525 111.229 148.939 111.238C148.647 111.245 148.362 111.225 148.093 111.23C147.825 111.237 147.569 111.234 147.333 111.23C146.86 111.219 146.459 111.228 146.18 111.214C145.9 111.205 145.739 111.192 145.739 111.192Z" fill="#3B82B1"/>
<path d="M162.642 142.461C162.642 152.791 158.418 157.765 151.91 157.765C145.401 157.765 141.177 152.791 141.177 142.461" fill="#E8C358"/>
<path d="M162.642 144.251H141.177V144.636H162.642V144.251Z" fill="#EDCD76"/>
<path d="M20.5761 51.3151C17.613 50.3636 14.9079 47.6349 13.5548 44.9069C11.5582 40.9733 10.3174 34.7803 12.3787 30.7831C14.8262 26.215 21.8261 25.6719 26.4096 27.4654C30.4206 29.0351 30.5256 33.0906 30.5256 36.3265C30.5256 38.7375 29.7229 39.5139 29.4006 41.8611L20.5761 51.3151Z" fill="#6B6766"/>
<path d="M29.5118 151.957C29.4304 151.906 29.3622 151.862 29.3103 151.827C27.5896 150.628 31.7783 102.038 31.7783 102.038L25.2951 100.923C25.2951 100.923 25.1309 127.147 24.6153 130.06C24.1217 132.849 24.6784 146.468 24.8264 152.138C24.8334 152.391 24.8396 152.635 24.8446 152.856V153.426V154.419C25.6794 154.687 26.5154 155.036 27.3517 155.228C28.3082 155.411 29.3107 155.545 30.2668 155.728C31.1271 155.913 31.9596 156.034 32.8343 156.073C32.9227 155.349 33.3503 154.757 34.0681 154.393C32.309 153.534 30.2799 152.437 29.5118 151.957Z" fill="#356E95"/>
<path d="M36.6128 155.515C36.5667 155.495 36.5183 155.474 36.4621 155.457C35.9186 155.27 35.0339 154.866 34.0677 154.394C33.3495 154.758 32.9222 155.35 32.8339 156.074C33.0245 156.082 33.2151 156.089 33.4103 156.089C34.5547 156.089 35.5851 155.835 36.6128 155.515Z" fill="#EFF9FF"/>
<path d="M36.6129 155.515C35.5852 155.835 34.5547 156.089 33.4104 156.089C32.3172 156.089 31.3147 155.954 30.2664 155.728C29.3104 155.546 28.3078 155.411 27.3514 155.229C26.5154 155.037 25.6794 154.687 24.8442 154.419V155.083C24.8442 155.083 34.8991 157.518 36.9627 156.317C36.9635 156.317 37.3408 155.836 36.6129 155.515Z" fill="#BABABA"/>
<path d="M19.2036 153.074C19.1222 153.023 19.0517 152.978 19.0014 152.942C17.2814 151.742 21.8815 103.067 21.8815 103.067L14.1072 102.039L14.3075 110.78C14.3075 110.78 14.8234 128.262 14.3075 131.176C13.8139 133.964 14.3694 147.583 14.5201 153.253C14.5263 153.507 14.5306 153.75 14.5368 153.969V154.542V155.534C15.372 155.804 16.2083 156.152 17.0443 156.344C17.9992 156.525 19.0017 156.661 19.9601 156.843C20.8189 157.029 21.6503 157.149 22.525 157.187C22.6148 156.465 23.0421 155.871 23.7592 155.508C22.0005 154.648 19.9717 153.55 19.2036 153.074Z" fill="#356E95"/>
<path d="M26.3046 156.629C26.2585 156.61 26.2086 156.59 26.1539 156.572C25.6104 156.386 24.7257 155.983 23.7584 155.508C23.0413 155.871 22.6144 156.465 22.5242 157.188C22.7148 157.196 22.9054 157.206 23.1018 157.206C24.2469 157.206 25.2769 156.95 26.3046 156.629Z" fill="#EFF9FF"/>
<path d="M26.3046 156.629C25.2769 156.949 24.2465 157.205 23.1021 157.205C22.009 157.205 21.0053 157.069 19.9597 156.843C19.0009 156.662 17.9984 156.526 17.0439 156.344C16.2079 156.152 15.372 155.804 14.5364 155.534V156.198C14.5364 156.198 24.5901 158.633 26.6552 157.432C26.6552 157.432 27.0325 156.951 26.3046 156.629Z" fill="#BABABA"/>
<path d="M12.9776 94.1831C12.9776 94.1831 13.5029 120.836 13.5029 126.234C13.5029 126.234 13.3925 151.892 13.6497 152.75C13.6497 152.75 17.761 153.783 19.9125 152.591C19.9125 152.591 19.7874 141.402 19.7874 137.631C19.7874 133.861 22.5246 104.124 22.5246 104.124L24.4154 103.353L23.98 151.337C23.98 151.337 28.4632 153.039 30.1459 151.305C30.1459 151.305 30.8456 134.889 30.9532 132.148C31.0625 129.404 32.9165 96.4972 32.141 94.1831H12.9776Z" fill="#3F4356"/>
<path d="M21.8815 104.467C21.8815 104.467 22.2515 104.409 22.7729 104.248C23.2955 104.091 23.9699 103.835 24.6234 103.533C25.2758 103.228 25.9068 102.878 26.3628 102.58C26.821 102.285 27.1027 102.039 27.1027 102.039C27.1027 102.039 26.7319 102.096 26.2113 102.257C25.6883 102.414 25.0143 102.671 24.3612 102.973C23.7088 103.278 23.0782 103.628 22.6222 103.927C22.1639 104.221 21.8815 104.467 21.8815 104.467Z" fill="#363A47"/>
<path d="M23.7456 95.2976C23.7456 95.2976 23.7406 95.4164 23.7158 95.6197C23.6914 95.8233 23.6577 96.113 23.617 96.462C23.5395 97.1578 23.4659 98.0861 23.4361 99.0179C23.4117 99.9494 23.4295 100.883 23.488 101.585C23.5411 102.286 23.6364 102.763 23.6596 102.753C23.6352 102.758 23.7503 102.291 23.8444 101.596C23.9443 100.9 24.028 99.9694 24.0571 99.0357C24.0826 98.1016 24.0516 97.1647 23.9722 96.4608C23.9354 96.1095 23.8843 95.8164 23.8382 95.6127C23.7921 95.4087 23.7456 95.2976 23.7456 95.2976Z" fill="#363A47"/>
<path d="M25.0367 96.0686C25.0367 96.0686 24.9345 96.403 24.8678 96.9021C24.7946 97.4012 24.7408 98.0584 24.6869 98.7048C24.6354 99.3512 24.5723 99.9853 24.4638 100.449C24.4266 100.559 24.4103 100.674 24.3747 100.762C24.3367 100.85 24.3162 100.94 24.2821 101.001C24.2147 101.134 24.1768 101.21 24.1768 101.21C24.1768 101.21 24.2496 101.169 24.3786 101.078C24.4994 100.981 24.6559 100.815 24.7939 100.585C24.9271 100.355 25.0534 100.067 25.1332 99.7523C25.2266 99.4372 25.268 99.0955 25.306 98.7557C25.3575 98.0742 25.3067 97.3988 25.2227 96.8994C25.1425 96.3999 25.0367 96.0686 25.0367 96.0686Z" fill="#434747"/>
<path d="M18.2374 96.9292C18.2374 96.9292 18.1987 97.7588 18.1313 99.2105C18.0736 100.662 17.9926 102.736 17.8946 105.225C17.8179 107.714 17.7017 110.617 17.6262 113.73C17.5498 116.842 17.4673 120.161 17.386 123.481C17.3852 126.802 17.384 130.123 17.3829 133.237C17.3794 136.351 17.4251 139.257 17.4394 141.748C17.4758 144.238 17.5057 146.313 17.5266 147.765C17.5595 149.217 17.577 150.047 17.577 150.047C17.577 150.047 17.6025 149.217 17.6482 147.764C17.6819 146.311 17.7304 144.236 17.7889 141.745C17.8253 139.255 17.8973 136.351 17.9213 133.239C17.9488 130.128 17.9779 126.81 18.0066 123.491C18.06 120.171 18.1139 116.851 18.1642 113.739C18.2154 110.626 18.2177 107.721 18.2429 105.23C18.2467 102.74 18.2491 100.665 18.251 99.2125C18.2425 97.7592 18.2374 96.9292 18.2374 96.9292Z" fill="#363A47"/>
<path d="M28.7924 95.5015C28.7924 95.5015 28.7579 96.3315 28.6983 97.7836C28.6483 99.2357 28.5782 101.31 28.4937 103.799C28.4302 106.289 28.3299 109.192 28.271 112.306C28.2113 115.418 28.147 118.738 28.0835 122.058C28.1005 125.379 28.1172 128.7 28.1331 131.814C28.1463 134.928 28.2078 137.833 28.2357 140.324C28.2853 142.814 28.3268 144.889 28.355 146.342C28.3957 147.793 28.4178 148.623 28.4178 148.623C28.4178 148.623 28.4391 147.793 28.4767 146.339C28.5023 144.886 28.5398 142.811 28.5852 140.321C28.6084 137.83 28.6646 134.926 28.6719 131.814C28.6828 128.703 28.694 125.384 28.7045 122.065C28.7401 118.745 28.7761 115.425 28.8094 112.313C28.8439 109.199 28.8304 106.294 28.8424 103.804C28.8331 101.313 28.8242 99.2376 28.818 97.7855C28.8021 96.3318 28.7924 95.5015 28.7924 95.5015Z" fill="#363A47"/>
<path d="M38.1004 73.2325C36.7206 71.0719 35.9106 68.6158 34.7721 66.3337C33.7343 64.251 32.6814 62.1752 31.678 60.0752C30.9827 58.6215 28.8265 57.6438 26.3047 57.0687C25.2816 59.3327 23.2943 62.6535 22.6621 63.114C22.121 62.1506 20.1635 58.9011 18.6163 56.5029C18.2185 56.538 17.8439 56.5828 17.5065 56.6406C13.5467 57.3194 12.0603 59.3848 12.0603 59.3848L11.7244 60.5897C11.7244 60.5897 11.91 75.5015 11.7825 78.5855C11.6783 81.0508 11.7275 90.2378 11.7512 93.8351L11.719 93.834C11.633 94.2629 11.719 96.4119 11.719 96.9253C14.7321 97.7819 15.9415 98.7681 19.0394 99.0257C21.1068 99.2263 24.4921 96.0686 24.4921 96.0686C24.7513 96.0686 27.1166 100.32 32.5252 97.7001C32.6752 96.368 32.7046 93.6786 32.6353 93.1602L31.6777 70.8729C31.7005 71.4078 32.4334 72.3601 32.6725 72.858C32.9359 73.403 35.1726 76.4129 36.9054 78.4736C37.7196 77.3146 39.0406 76.5957 39.9858 75.5675C39.292 74.847 38.6451 74.0849 38.1004 73.2325Z" fill="#3498DB"/>
<path d="M47.2163 70.6298C47.5227 70.9684 48.0344 71.9084 47.6513 72.3689C47.0997 73.0326 45.5916 72.0067 45.0961 71.5987C44.5158 71.1166 43.9208 70.2117 44.6894 69.6363C45.4905 69.0346 46.6716 70.0266 47.2163 70.6298Z" fill="#4DA7F0" fill-opacity="0.7"/>
<path d="M46.708 72.487C46.9579 72.1708 47.1841 71.8348 47.4096 71.4919C47.5045 71.7855 47.5723 72.1029 47.5246 72.3374C47.5196 72.3628 47.4754 72.4234 47.4165 72.4978C47.1601 72.5449 46.9265 72.5364 46.708 72.487Z" fill="#4DA7F0" fill-opacity="0.7"/>
<path d="M45.2247 71.163C45.6377 70.8791 46.0146 70.4922 46.3512 70.0367C48.3617 67.3269 49.1179 62.2748 49.7017 62.9821C49.7435 63.6355 49.8764 64.1334 49.5425 64.887C50.2096 63.3821 53.3644 59.3532 53.1382 60.3448C53.1215 61.2786 52.4389 61.935 52.0144 62.846C52.4734 62.0588 53.9303 60.4663 54.1914 60.7428C54.016 61.5871 53.1761 62.8884 52.6516 63.4257C53.3005 62.8552 54.788 61.0641 55.0344 61.4409C54.7012 62.1942 54.0349 63.0674 53.5445 63.7288C54.0694 63.1904 54.8601 62.2833 55.574 61.9612C54.8837 63.8731 50.9134 68.0169 50.1096 68.5098C48.808 69.3047 48.1127 70.4301 47.4103 71.4927C47.1849 71.8356 46.9586 72.1711 46.7088 72.4878C46.0785 72.3428 45.6059 71.8259 45.2247 71.163Z" fill="#DDA996"/>
<path d="M37.6809 77.2206C31.7869 70.8182 36.6756 79.8495 39.8773 80.7412C41.2126 81.1134 42.1609 79.3589 42.7881 78.4818C43.7542 77.1316 44.6162 75.6432 45.7489 74.4206C44.6708 73.5528 43.7709 72.5041 43.129 71.2969C42.4565 71.8916 39.2432 75.9706 37.6809 77.2206Z" fill="#3498DB"/>
<path d="M43.1294 71.2968C43.638 70.849 44.1006 70.2469 44.6898 69.636C44.3861 70.0062 45.7922 72.7932 47.4165 72.4978C46.8893 73.1635 46.3253 73.7975 45.7493 74.42C44.6712 73.5523 43.7709 72.5036 43.1294 71.2968Z" fill="#4DA7F0"/>
<path d="M32.5686 67.4029C32.5686 67.4029 32.4114 67.4284 32.2425 67.5155C32.0976 67.5869 31.9434 67.7018 31.8094 67.8399C31.7826 66.4796 31.7079 65.1212 31.613 64.1014C31.5692 63.5877 31.5064 63.1604 31.4739 62.8607C31.4363 62.561 31.4061 62.3901 31.4061 62.3901C31.4061 62.3901 31.3817 62.561 31.3538 62.8607C31.3325 63.1604 31.2837 63.5881 31.2574 64.1014C31.1969 65.1277 31.1683 66.4965 31.1884 67.8654C31.214 69.2342 31.2891 70.603 31.3852 71.6293C31.4282 72.1426 31.4925 72.5703 31.5243 72.87C31.5622 73.1693 31.5928 73.3406 31.5928 73.3406C31.5928 73.3406 31.6172 73.1697 31.6451 72.87C31.6668 72.5707 31.716 72.1426 31.7424 71.6293C31.7919 70.8 31.8191 69.746 31.8163 68.6498C31.9604 68.5623 32.1073 68.4385 32.2289 68.2927C32.3746 68.1157 32.4799 67.9085 32.5276 67.7288C32.5787 67.5529 32.5686 67.4029 32.5686 67.4029Z" fill="#3B82B1"/>
<path d="M24.0265 63.9395C23.9343 63.4442 23.7441 62.9957 23.531 62.5641C23.1099 61.7056 22.5316 60.9284 22.5203 59.9862C22.4041 58.0975 22.2705 56.2053 22.1275 54.3162C21.6441 54.2109 21.1296 54.2537 20.6551 54.4037C20.1771 54.5491 19.7296 54.7767 19.2993 55.022C18.8689 55.2681 18.4532 55.538 18.0298 55.7845C17.601 56.0148 17.1694 56.2836 16.7542 56.5397C16.5407 56.6708 16.3447 56.7919 16.1181 56.8768C16.0057 56.9227 15.8899 56.9639 15.7691 57.0195C15.7086 57.048 15.6466 57.0789 15.5819 57.1325C15.5188 57.1799 15.4464 57.2914 15.4607 57.4025C15.4948 57.6092 15.6052 57.6913 15.6935 57.7939C15.7338 57.8364 15.7818 57.8819 15.8415 57.9289C15.8965 57.9706 15.9503 58.0095 16.0081 58.0439C16.2355 58.1827 16.4795 58.2733 16.7247 58.3455C17.5347 58.5749 18.3626 58.6212 19.1772 58.6579C18.9278 58.8002 18.6574 58.9294 18.3943 59.0682C17.9748 59.2969 17.5208 59.5071 17.1811 59.9453C17.1005 60.0575 17.0342 60.1921 17.0071 60.3402C16.9746 60.4837 17.0025 60.6557 17.023 60.7575C17.0792 61.0271 17.1826 61.2562 17.3077 61.4761C17.5622 61.9096 17.8892 62.2772 18.2297 62.6189C18.5791 62.961 18.9212 63.2676 19.2931 63.5935C19.6777 63.9024 20.0872 64.1585 20.509 64.3946C20.9317 64.6283 21.369 64.8377 21.8281 65.004C22.2883 65.1594 22.7694 65.3137 23.311 65.2385C23.4454 65.2142 23.5849 65.1667 23.7088 65.0803C23.832 64.9935 23.9281 64.8647 23.9827 64.7301C24.0877 64.4551 24.0652 64.1863 24.0265 63.9395Z" fill="#4DA7F0" fill-opacity="0.7"/>
<path d="M23.0309 63.9247C22.4898 62.9612 20.1635 58.9011 18.6163 56.5029C20.7787 56.3158 23.7302 56.4797 26.3051 57.0683C25.2816 59.3327 23.8495 62.6893 23.0309 63.9247Z" fill="#CCCCCC"/>
<mask id="mask0_463_946" style="mask-type:luminance" maskUnits="userSpaceOnUse" x="18" y="56" width="9" height="8">
<path d="M23.0309 63.9247C22.4898 62.9612 20.1635 58.9011 18.6163 56.5029C20.7787 56.3158 23.7302 56.4797 26.3051 57.0683C25.2816 59.3327 23.8495 62.6893 23.0309 63.9247Z" fill="white"/>
</mask>
<g mask="url(#mask0_463_946)">
<path d="M23.2405 58.2905C23.7425 58.79 24.1102 59.8564 23.2405 60.256C23.4745 60.9888 23.5415 61.8223 23.7088 62.5551C23.8766 63.2212 24.5789 64.7203 24.3449 65.3868C24.1439 65.9865 22.2705 66.1196 21.7684 65.7196C21.2331 65.3201 21.7014 63.7874 21.7684 63.1548C21.8688 62.1883 21.8688 60.9892 22.3371 60.0898C21.5345 59.7901 21.8017 58.0576 22.7721 58.1575L23.2405 58.2905Z" fill="black"/>
</g>
<path d="M27.5993 59.2332C28.3741 59.185 31.8605 58.3654 29.972 57.594C28.8099 57.1601 27.9383 56.9191 26.9698 56.0513C26.2435 55.3763 25.5931 54.9509 24.673 54.6616C24.2372 54.517 22.5664 54.6709 22.1306 54.5745L23.8223 55.2317C24.9496 56.3228 25.1022 57.5149 24.8489 58.7684L24.8028 58.7511L24.8435 58.7923C24.704 59.47 24.4483 60.165 24.1609 60.8724C23.7735 61.933 23.3377 62.9454 22.8535 63.9579C22.5579 64.5464 21.7987 65.3498 22.2511 66.0298C22.7059 66.712 24.0513 66.0895 24.5483 65.7899C26.1462 64.8256 28.2768 62.8972 28.8579 61.1134C27.7926 60.342 26.4852 60.1974 25.4683 59.185C26.0498 59.426 26.9698 59.2814 27.5993 59.2332Z" fill="#4DA7F0"/>
<path d="M22.1585 65.2573C22.1585 65.2573 22.229 65.7363 22.3336 66.5756C22.4305 67.4156 22.5912 68.614 22.7438 70.0549C22.9031 71.4954 23.072 73.1774 23.2362 74.9805C23.3156 75.8822 23.397 76.8144 23.4803 77.7613C23.5566 78.7089 23.6337 79.6712 23.7111 80.6339C23.7797 81.597 23.8483 82.5604 23.9157 83.5084C23.9873 84.4561 24.035 85.3906 24.0939 86.2943C24.2035 88.1016 24.2899 89.7897 24.3492 91.2376C24.4154 92.6851 24.4363 93.8942 24.4669 94.7389C24.4898 95.5843 24.4921 96.0683 24.4921 96.0683C24.4921 96.0683 24.4212 95.5897 24.3166 94.7501C24.2198 93.91 24.0582 92.7117 23.9056 91.2708C23.746 89.8306 23.5771 88.1483 23.4136 86.3448C23.3354 85.443 23.242 84.512 23.17 83.5644C23.094 82.6167 23.0166 81.6544 22.9395 80.6918C22.8709 79.7283 22.8027 78.7652 22.7353 77.8172C22.6749 76.8684 22.6152 75.9351 22.5579 75.0314C22.4487 73.2241 22.3623 71.5359 22.3026 70.0881C22.2368 68.6406 22.2151 67.4318 22.1845 66.5868C22.1612 65.7414 22.1585 65.2573 22.1585 65.2573Z" fill="#3B82B1"/>
<path d="M30.3373 39.193C30.3373 37.2993 30.2974 36.2421 30.3373 35.1294C30.3714 34.171 30.1173 32.8867 29.1395 32.3494C28.3996 31.9429 27.5889 32.2534 26.8548 32.4612C24.0525 33.2531 20.8817 33.4455 18.1019 32.4628C17.324 32.1878 15.8605 31.2772 15.343 32.2356C14.858 33.1343 15.1733 34.2771 15.2384 35.2401C15.3507 36.8978 15.5762 41.3891 15.6137 41.9715C15.6381 42.3456 15.429 43.78 14.8235 43.0873C14.6027 42.8347 14.6558 42.4505 14.4698 42.1725C14.4698 42.1725 11.4165 40.8708 11.5625 44.3778C11.6814 47.2304 15.4588 47.1046 15.4588 47.1046C15.4588 47.1046 15.4859 49.0635 20.1922 51.6291C20.1922 51.6291 20.3483 54.9669 19.6991 55.6191C19.6991 55.6191 21.6631 59.1508 24.059 57.7716L25.3506 55.8944C25.3506 55.8944 24.6734 55.9573 24.6734 55.3097C24.6734 54.6622 24.7656 52.1514 24.7656 52.1514C24.7656 52.1514 30.0011 51.955 30.3408 48.2054C30.6798 44.4554 30.3373 39.193 30.3373 39.193Z" fill="#B06E5C"/>
<path d="M22.7121 58.1002L19.6568 55.3093L17.2295 56.5034L20.2073 60.233L22.7121 58.1002Z" fill="#E8EEF3"/>
<path d="M27.9886 57.3168L25.1724 55.6187L22.7121 58.1002L25.3502 60.4355L27.9886 57.3168Z" fill="#E8EEF3"/>
<path d="M19.2768 89.7191C18.1968 88.5609 15.4232 86.8237 15.4232 86.8237C15.4232 86.8237 17.6661 88.0649 17.8966 87.403C18.1267 86.7412 13.262 85.7133 13.262 85.7133C12.3973 85.3064 10.7796 83.6036 9.15804 81.6582C8.73734 82.9113 8.20585 84.122 7.62207 85.3145C9.34475 86.8611 10.8641 88.1443 11.6849 88.756C18.7465 94.0203 20.3568 90.8769 19.2768 89.7191Z" fill="#B06E5C"/>
<path d="M11.9646 83.8144L6.21702 75.9676L16.0592 66.276L15.4588 62.0257L15.2085 57.2675C15.2085 57.2675 14.5058 57.2066 11.6814 59.3402C8.85702 61.4738 0.0894205 74.9802 0.0894205 74.9802C0.0894205 74.9802 -1.59026 77.5558 9.61009 87.7287C10.5723 86.8694 11.4567 85.2645 11.9646 83.8144Z" fill="#3498DB"/>
<path d="M11.9646 83.8145C11.4567 85.2646 10.5723 86.8695 9.60968 87.7284C10.0761 88.1519 10.5568 88.5839 11.0689 89.0343C11.0689 89.0343 13.1492 87.1186 12.9776 85.1971L11.9646 83.8145Z" fill="#4DA7F0"/>
<path d="M3.22137 75.1888C3.22137 75.1888 3.41352 75.058 3.70909 74.9724C4.00466 74.8713 4.4149 74.8332 4.82668 74.8914C4.92934 74.9122 5.03199 74.9319 5.13116 74.9593C5.23072 74.9828 5.32602 75.0291 5.41744 75.0669C5.60106 75.139 5.75601 75.2578 5.87881 75.3592C6.00393 75.458 6.08335 75.5802 6.13874 75.6554C6.19259 75.7353 6.21699 75.7854 6.21699 75.7854C6.21699 75.7854 6.15656 75.7893 6.06165 75.7881C5.96519 75.7893 5.84317 75.7723 5.69829 75.7638C5.54915 75.7642 5.39768 75.7334 5.22607 75.7237C5.06105 75.7002 4.88285 75.6836 4.70698 75.6531C4.35175 75.6011 3.98723 75.5166 3.70173 75.4129C3.417 75.3164 3.22137 75.1888 3.22137 75.1888Z" fill="#3B82B1"/>
<path d="M12.3787 58.9988C12.3787 58.9988 12.5879 59.3432 12.8021 59.8824C12.9156 60.1501 13.0295 60.4659 13.1 60.8281C13.1814 61.1852 13.2557 61.5713 13.31 61.9593C13.3452 62.3438 13.3638 62.7299 13.3665 63.0925C13.3766 63.4546 13.3522 63.7925 13.3177 64.0825C13.2577 64.6622 13.1484 65.0491 13.1484 65.0491C13.1484 65.0491 12.997 64.673 12.8734 64.1095C12.8408 63.9684 12.8068 63.816 12.7812 63.654C12.7537 63.492 12.7103 63.3239 12.6863 63.1476C12.6243 62.7966 12.5739 62.4225 12.5402 62.0461C12.4879 61.6778 12.4519 61.3083 12.4318 60.9565C12.4136 60.7814 12.4221 60.6098 12.4054 60.4455C12.3861 60.282 12.3775 60.1246 12.3702 59.9796C12.3353 59.3999 12.3787 58.9988 12.3787 58.9988Z" fill="#3B82B1"/>
<path d="M17.7277 36.644C18.1503 35.3022 19.6405 34.5509 20.9886 34.9721L17.7277 36.644Z" fill="#141210"/>
<path d="M26.8059 35.2231C27.8216 34.9042 28.9826 35.4079 29.296 36.6004L26.8059 35.2231Z" fill="#141210"/>
<path d="M21.3768 46.9572C21.3768 46.9572 21.4364 47.0266 21.5484 47.1392C21.658 47.2469 21.837 47.405 22.0675 47.55C22.2952 47.7058 22.5842 47.8501 22.9073 47.9762C23.0731 48.0271 23.2397 48.0988 23.421 48.1308C23.5996 48.1744 23.7863 48.1995 23.9734 48.2246C24.1624 48.2331 24.3526 48.2446 24.5417 48.2269C24.7299 48.2219 24.9139 48.1775 25.0898 48.1343C25.4388 48.0333 25.7522 47.8759 25.963 47.6742C26.0769 47.5859 26.1609 47.4833 26.2264 47.3876C26.3004 47.2993 26.3492 47.2137 26.3802 47.1369C26.4491 46.9888 26.4794 46.9055 26.4794 46.9055C26.4794 46.9055 26.4081 46.9618 26.2845 47.0594C26.2299 47.1119 26.1516 47.1628 26.0625 47.2156C25.9777 47.2735 25.8793 47.3305 25.7646 47.378C25.5462 47.4887 25.2715 47.555 24.9779 47.6005C24.8287 47.6217 24.6745 47.6264 24.5146 47.6295C24.3569 47.6391 24.1926 47.6202 24.0307 47.6082C23.7022 47.5859 23.376 47.5157 23.0661 47.4551C22.7589 47.3803 22.4684 47.307 22.2201 47.2295C21.9691 47.1554 21.7672 47.0876 21.6146 47.0351C21.4655 46.983 21.3768 46.9572 21.3768 46.9572Z" fill="#8E5346"/>
<path d="M26.9102 41.6892C26.9102 42.024 27.1833 42.2951 27.5195 42.2951C27.8558 42.2951 28.1273 42.024 28.1273 41.6892C28.1273 41.3537 27.8558 41.0825 27.5195 41.0825C27.1833 41.0825 26.9102 41.3537 26.9102 41.6892Z" fill="black"/>
<path d="M19.773 41.6892C19.773 42.024 20.0446 42.2951 20.3804 42.2951C20.7167 42.2951 20.9871 42.024 20.9871 41.6892C20.9871 41.3537 20.7167 41.0825 20.3804 41.0825C20.0446 41.0825 19.773 41.3537 19.773 41.6892Z" fill="black"/>
<path d="M24.673 43.3752L24.7071 43.4289L24.69 43.4092C24.8826 43.3868 25.0689 43.3884 25.2579 43.4026C25.4454 43.4208 25.636 43.4497 25.8231 43.5122C26.0122 43.5719 26.2004 43.6564 26.3852 43.796C26.4762 43.8693 26.5646 43.9592 26.642 44.0706C26.7149 44.189 26.773 44.3294 26.7889 44.481C26.7904 44.5585 26.7978 44.6264 26.7838 44.7109C26.7718 44.7626 26.7831 44.773 26.7401 44.8891C26.723 44.9354 26.7025 44.9812 26.6804 45.0244C26.6587 45.0603 26.637 45.0869 26.6145 45.1178C26.57 45.1814 26.5196 45.2254 26.4673 45.2678C26.2589 45.4333 26.0466 45.4946 25.8452 45.5324C25.6426 45.5679 25.4443 45.5629 25.2517 45.5424C25.06 45.5123 24.8667 45.4711 24.6955 45.3696C24.8798 45.3025 25.0449 45.2412 25.2068 45.1706C25.3683 45.107 25.5214 45.0325 25.6589 44.9593C25.7948 44.8864 25.9169 44.8019 25.9754 44.729C25.9881 44.7109 26.0044 44.6951 26.0067 44.682L26.0164 44.6658C26.0114 44.6681 26.0083 44.6727 26.0079 44.6781C26.0087 44.7147 26.0187 44.6334 26.023 44.5983C26.0242 44.5948 26.0164 44.5736 26.0195 44.5624C26.0172 44.5365 26.0087 44.5099 25.992 44.4745C25.9711 44.4374 25.9405 44.3946 25.8979 44.3491C25.8123 44.2562 25.6875 44.1636 25.5558 44.0691C25.4214 43.9781 25.2785 43.8782 25.1282 43.7833C24.9794 43.6826 24.8233 43.5839 24.6753 43.4566L24.6571 43.4408L24.6583 43.4366L24.673 43.3752Z" fill="#8E5346"/>
<path d="M44.4012 154.999C46.8626 155.179 48.8379 155.594 49.0281 153.014L49.367 148.455L40.1477 147.789L39.8103 152.348C39.619 154.927 41.6337 154.799 44.094 154.978L44.4012 154.999Z" fill="#D4645A"/>
<path d="M50.0124 140.138L40.7935 139.471L40.1478 147.79L49.367 148.455L50.0124 140.138Z" fill="#999999"/>
<path d="M46.7394 60.5173L40.7935 139.471L43.5544 139.68L49.5046 60.7163L46.7394 60.5173Z" fill="#E8C358"/>
<path d="M50.0124 140.138L55.9575 61.1827L52.2693 60.917L46.2316 139.873L50.0124 140.138Z" fill="#E8C358"/>
<path d="M52.2693 60.9169L49.5046 60.7163L43.5544 139.68L46.3199 139.879L52.2693 60.9169Z" fill="#EDCD76"/>
<path d="M52.7287 42.3611L50.8143 48.0403L53.7673 48.2532L52.7287 42.3611Z" fill="#D4645A"/>
<path d="M55.9576 61.1826L53.7673 48.2532L50.8143 48.0403L46.7394 60.5173L55.9576 61.1826Z" fill="#F2D5B6"/>
<path d="M40.6207 141.71L40.7009 140.658L49.9186 141.337L49.8381 142.389L40.6207 141.71Z" fill="#B0B0B0"/>
<path d="M40.4309 144.15L40.5119 143.098L49.7288 143.776L49.649 144.828L40.4309 144.15Z" fill="#B0B0B0"/>
<path d="M40.2914 146.367L40.372 145.315L49.5894 145.994L49.5088 147.046L40.2914 146.367Z" fill="#B0B0B0"/>
</svg>
